<?xml version="1.0" encoding="UTF-8" standalone="no"?>
<!DOCTYPE svg PUBLIC "-//W3C//DTD SVG 1.1//EN"
 "http://www.w3.org/Graphics/SVG/1.1/DTD/svg11.dtd">
<!-- Generated by graphviz version 2.43.0 (0)
 -->
<!-- Title: BPlusTreeLogo Pages: 1 -->
<svg width="897pt" height="267pt"
 viewBox="0.00 0.00 897.00 267.00" xmlns="http://www.w3.org/2000/svg" xmlns:xlink="http://www.w3.org/1999/xlink">
<g id="graph0" class="graph" transform="scale(1 1) rotate(0) translate(4 263)">
<title>BPlusTreeLogo</title>
<polygon fill="white" stroke="transparent" points="-4,4 -4,-263 893,-263 893,4 -4,4"/>
<!-- root -->
<g id="node1" class="node">
<title>root</title>
<polygon fill="#d6eaf8" stroke="#5499c7" stroke-width="1.8" points="470,-259 420,-259 420,-230 470,-230 470,-259"/>
<text text-anchor="middle" x="445" y="-242" font-family="Helvetica,Arial,sans-serif" font-size="10.00">• | •</text>
</g>
<!-- intL -->
<g id="node2" class="node">
<title>intL</title>
<polygon fill="#e8daef" stroke="#8e44ad" stroke-width="1.8" points="223,-180 173,-180 173,-151 223,-151 223,-180"/>
<text text-anchor="middle" x="198" y="-163" font-family="Helvetica,Arial,sans-serif" font-size="10.00">• | • | •</text>
</g>
<!-- root&#45;&gt;intL -->
<g id="edge1" class="edge">
<title>root&#45;&gt;intL</title>
<path fill="none" stroke="black" stroke-width="1.2" d="M419.96,-235.69C374.74,-221.6 279.57,-191.93 229.82,-176.42"/>
<polygon fill="black" stroke="black" stroke-width="1.2" points="230.52,-174.07 223.11,-174.33 229.06,-178.75 230.52,-174.07"/>
</g>
<!-- intM -->
<g id="node3" class="node">
<title>intM</title>
<polygon fill="#e8daef" stroke="#8e44ad" stroke-width="1.8" points="470,-180 420,-180 420,-151 470,-151 470,-180"/>
<text text-anchor="middle" x="445" y="-163" font-family="Helvetica,Arial,sans-serif" font-size="10.00">• | • | •</text>
</g>
<!-- root&#45;&gt;intM -->
<g id="edge2" class="edge">
<title>root&#45;&gt;intM</title>
<path fill="none" stroke="black" stroke-width="1.2" d="M445,-229.73C445,-217.91 445,-200.68 445,-187.2"/>
<polygon fill="black" stroke="black" stroke-width="1.2" points="447.45,-187.15 445,-180.15 442.55,-187.15 447.45,-187.15"/>
</g>
<!-- intR -->
<g id="node4" class="node">
<title>intR</title>
<polygon fill="#e8daef" stroke="#8e44ad" stroke-width="1.8" points="716,-180 666,-180 666,-151 716,-151 716,-180"/>
<text text-anchor="middle" x="691" y="-163" font-family="Helvetica,Arial,sans-serif" font-size="10.00">• | • | •</text>
</g>
<!-- root&#45;&gt;intR -->
<g id="edge3" class="edge">
<title>root&#45;&gt;intR</title>
<path fill="none" stroke="black" stroke-width="1.2" d="M470.4,-235.55C515.45,-221.45 609.24,-192.09 658.76,-176.59"/>
<polygon fill="black" stroke="black" stroke-width="1.2" points="659.79,-178.84 665.74,-174.41 658.33,-174.16 659.79,-178.84"/>
</g>
<!-- l1 -->
<g id="node5" class="node">
<title>l1</title>
<polygon fill="#d5f5e3" stroke="#28b463" stroke-width="1.8" points="93,-101 43,-101 43,-72 93,-72 93,-101"/>
<text text-anchor="middle" x="68" y="-84" font-family="Helvetica,Arial,sans-serif" font-size="10.00">• •</text>
</g>
<!-- intL&#45;&gt;l1 -->
<g id="edge4" class="edge">
<title>intL&#45;&gt;l1</title>
<path fill="none" stroke="black" stroke-width="1.2" d="M175.06,-150.91C153.38,-138.07 120.76,-118.75 97.23,-104.81"/>
<polygon fill="black" stroke="black" stroke-width="1.2" points="98.42,-102.67 91.15,-101.21 95.92,-106.89 98.42,-102.67"/>
</g>
<!-- l2 -->
<g id="node6" class="node">
<title>l2</title>
<polygon fill="#d5f5e3" stroke="#28b463" stroke-width="1.8" points="183,-101 133,-101 133,-72 183,-72 183,-101"/>
<text text-anchor="middle" x="158" y="-84" font-family="Helvetica,Arial,sans-serif" font-size="10.00">• •</text>
</g>
<!-- intL&#45;&gt;l2 -->
<g id="edge5" class="edge">
<title>intL&#45;&gt;l2</title>
<path fill="none" stroke="black" stroke-width="1.2" d="M190.85,-150.73C184.59,-138.69 175.43,-121.04 168.36,-107.45"/>
<polygon fill="black" stroke="black" stroke-width="1.2" points="170.49,-106.23 165.09,-101.15 166.14,-108.49 170.49,-106.23"/>
</g>
<!-- l3 -->
<g id="node7" class="node">
<title>l3</title>
<polygon fill="#d5f5e3" stroke="#28b463" stroke-width="1.8" points="262,-101 212,-101 212,-72 262,-72 262,-101"/>
<text text-anchor="middle" x="237" y="-84" font-family="Helvetica,Arial,sans-serif" font-size="10.00">• •</text>
</g>
<!-- intL&#45;&gt;l3 -->
<g id="edge6" class="edge">
<title>intL&#45;&gt;l3</title>
<path fill="none" stroke="black" stroke-width="1.2" d="M204.97,-150.73C211.07,-138.69 220.01,-121.04 226.89,-107.45"/>
<polygon fill="black" stroke="black" stroke-width="1.2" points="229.11,-108.5 230.09,-101.15 224.74,-106.28 229.11,-108.5"/>
</g>
<!-- l4 -->
<g id="node8" class="node">
<title>l4</title>
<polygon fill="#d5f5e3" stroke="#28b463" stroke-width="1.8" points="391,-101 341,-101 341,-72 391,-72 391,-101"/>
<text text-anchor="middle" x="366" y="-84" font-family="Helvetica,Arial,sans-serif" font-size="10.00">• •</text>
</g>
<!-- intM&#45;&gt;l4 -->
<g id="edge7" class="edge">
<title>intM&#45;&gt;l4</title>
<path fill="none" stroke="black" stroke-width="1.2" d="M430.88,-150.73C418.18,-138.36 399.42,-120.08 385.34,-106.35"/>
<polygon fill="black" stroke="black" stroke-width="1.2" points="386.72,-104.28 380,-101.15 383.3,-107.79 386.72,-104.28"/>
</g>
<!-- l5 -->
<g id="node9" class="node">
<title>l5</title>
<polygon fill="#d5f5e3" stroke="#28b463" stroke-width="1.8" points="470,-101 420,-101 420,-72 470,-72 470,-101"/>
<text text-anchor="middle" x="445" y="-84" font-family="Helvetica,Arial,sans-serif" font-size="10.00">• •</text>
</g>
<!-- intM&#45;&gt;l5 -->
<g id="edge8" class="edge">
<title>intM&#45;&gt;l5</title>
<path fill="none" stroke="black" stroke-width="1.2" d="M445,-150.73C445,-138.91 445,-121.68 445,-108.2"/>
<polygon fill="black" stroke="black" stroke-width="1.2" points="447.45,-108.15 445,-101.15 442.55,-108.15 447.45,-108.15"/>
</g>
<!-- l6 -->
<g id="node10" class="node">
<title>l6</title>
<polygon fill="#d5f5e3" stroke="#28b463" stroke-width="1.8" points="549,-101 499,-101 499,-72 549,-72 549,-101"/>
<text text-anchor="middle" x="524" y="-84" font-family="Helvetica,Arial,sans-serif" font-size="10.00">• •</text>
</g>
<!-- intM&#45;&gt;l6 -->
<g id="edge9" class="edge">
<title>intM&#45;&gt;l6</title>
<path fill="none" stroke="black" stroke-width="1.2" d="M459.12,-150.73C471.82,-138.36 490.58,-120.08 504.66,-106.35"/>
<polygon fill="black" stroke="black" stroke-width="1.2" points="506.7,-107.79 510,-101.15 503.28,-104.28 506.7,-107.79"/>
</g>
<!-- l7 -->
<g id="node11" class="node">
<title>l7</title>
<polygon fill="#d5f5e3" stroke="#28b463" stroke-width="1.8" points="677,-101 627,-101 627,-72 677,-72 677,-101"/>
<text text-anchor="middle" x="652" y="-84" font-family="Helvetica,Arial,sans-serif" font-size="10.00">• •</text>
</g>
<!-- intR&#45;&gt;l7 -->
<g id="edge10" class="edge">
<title>intR&#45;&gt;l7</title>
<path fill="none" stroke="black" stroke-width="1.2" d="M684.03,-150.73C677.93,-138.69 668.99,-121.04 662.11,-107.45"/>
<polygon fill="black" stroke="black" stroke-width="1.2" points="664.26,-106.28 658.91,-101.15 659.89,-108.5 664.26,-106.28"/>
</g>
<!-- l8 -->
<g id="node12" class="node">
<title>l8</title>
<polygon fill="#d5f5e3" stroke="#28b463" stroke-width="1.8" points="756,-101 706,-101 706,-72 756,-72 756,-101"/>
<text text-anchor="middle" x="731" y="-84" font-family="Helvetica,Arial,sans-serif" font-size="10.00">• •</text>
</g>
<!-- intR&#45;&gt;l8 -->
<g id="edge11" class="edge">
<title>intR&#45;&gt;l8</title>
<path fill="none" stroke="black" stroke-width="1.2" d="M698.15,-150.73C704.41,-138.69 713.57,-121.04 720.64,-107.45"/>
<polygon fill="black" stroke="black" stroke-width="1.2" points="722.86,-108.49 723.91,-101.15 718.51,-106.23 722.86,-108.49"/>
</g>
<!-- l9 -->
<g id="node13" class="node">
<title>l9</title>
<polygon fill="#d5f5e3" stroke="#28b463" stroke-width="1.8" points="846,-101 796,-101 796,-72 846,-72 846,-101"/>
<text text-anchor="middle" x="821" y="-84" font-family="Helvetica,Arial,sans-serif" font-size="10.00">• •</text>
</g>
<!-- intR&#45;&gt;l9 -->
<g id="edge12" class="edge">
<title>intR&#45;&gt;l9</title>
<path fill="none" stroke="black" stroke-width="1.2" d="M713.94,-150.91C735.62,-138.07 768.24,-118.75 791.77,-104.81"/>
<polygon fill="black" stroke="black" stroke-width="1.2" points="793.08,-106.89 797.85,-101.21 790.58,-102.67 793.08,-106.89"/>
</g>
<!-- l1&#45;&gt;l2 -->
<g id="edge13" class="edge">
<title>l1&#45;&gt;l2</title>
<path fill="none" stroke="#666666" stroke-width="1.2" stroke-dasharray="1,5" d="M93.05,-86.5C96.01,-86.5 98,-86.5 98,-86.5 98,-86.5 115.23,-86.5 125.73,-86.5"/>
<polygon fill="#666666" stroke="#666666" stroke-width="1.2" points="125.95,-88.95 132.95,-86.5 125.95,-84.05 125.95,-88.95"/>
</g>
<!-- r1 -->
<g id="node14" class="node">
<title>r1</title>
<ellipse fill="#fdebd0" stroke="black" stroke-width="1.8" cx="11" cy="-11" rx="11" ry="11"/>
</g>
<!-- l1&#45;&gt;r1 -->
<g id="edge21" class="edge">
<title>l1&#45;&gt;r1</title>
<path fill="none" stroke="black" stroke-width="1.2" d="M57.28,-71.68C47.19,-58.67 32.15,-39.28 21.98,-26.16"/>
<polygon fill="black" stroke="black" stroke-width="1.2" points="23.65,-24.31 17.42,-20.28 19.78,-27.31 23.65,-24.31"/>
</g>
<!-- r2 -->
<g id="node15" class="node">
<title>r2</title>
<ellipse fill="#fdebd0" stroke="black" stroke-width="1.8" cx="62" cy="-11" rx="11" ry="11"/>
</g>
<!-- l1&#45;&gt;r2 -->
<g id="edge22" class="edge">
<title>l1&#45;&gt;r2</title>
<path fill="none" stroke="black" stroke-width="1.2" d="M66.87,-71.68C65.88,-59.58 64.45,-41.96 63.39,-29.01"/>
<polygon fill="black" stroke="black" stroke-width="1.2" points="65.83,-28.77 62.82,-21.99 60.94,-29.17 65.83,-28.77"/>
</g>
<!-- l2&#45;&gt;l3 -->
<g id="edge14" class="edge">
<title>l2&#45;&gt;l3</title>
<path fill="none" stroke="#666666" stroke-width="1.2" stroke-dasharray="1,5" d="M183.2,-86.5C183.92,-86.5 184.33,-86.5 184.33,-86.5 184.33,-86.5 196.5,-86.5 204.65,-86.5"/>
<polygon fill="#666666" stroke="#666666" stroke-width="1.2" points="204.8,-88.95 211.8,-86.5 204.8,-84.05 204.8,-88.95"/>
</g>
<!-- r3 -->
<g id="node16" class="node">
<title>r3</title>
<ellipse fill="#fdebd0" stroke="black" stroke-width="1.8" cx="113" cy="-11" rx="11" ry="11"/>
</g>
<!-- l2&#45;&gt;r3 -->
<g id="edge23" class="edge">
<title>l2&#45;&gt;r3</title>
<path fill="none" stroke="black" stroke-width="1.2" d="M149.54,-71.68C141.73,-58.93 130.17,-40.05 122.16,-26.96"/>
<polygon fill="black" stroke="black" stroke-width="1.2" points="124.07,-25.39 118.32,-20.7 119.89,-27.95 124.07,-25.39"/>
</g>
<!-- r4 -->
<g id="node17" class="node">
<title>r4</title>
<ellipse fill="#fdebd0" stroke="black" stroke-width="1.8" cx="164" cy="-11" rx="11" ry="11"/>
</g>
<!-- l2&#45;&gt;r4 -->
<g id="edge24" class="edge">
<title>l2&#45;&gt;r4</title>
<path fill="none" stroke="black" stroke-width="1.2" d="M159.13,-71.68C160.12,-59.58 161.55,-41.96 162.61,-29.01"/>
<polygon fill="black" stroke="black" stroke-width="1.2" points="165.06,-29.17 163.18,-21.99 160.17,-28.77 165.06,-29.17"/>
</g>
<!-- l3&#45;&gt;l4 -->
<g id="edge15" class="edge">
<title>l3&#45;&gt;l4</title>
<path fill="none" stroke="#666666" stroke-width="1.2" stroke-dasharray="1,5" d="M262.01,-86.5C271.47,-86.5 280,-86.5 280,-86.5 280,-86.5 323,-86.5 323,-86.5 323,-86.5 327.6,-86.5 333.79,-86.5"/>
<polygon fill="#666666" stroke="#666666" stroke-width="1.2" points="333.99,-88.95 340.99,-86.5 333.99,-84.05 333.99,-88.95"/>
</g>
<!-- r5 -->
<g id="node18" class="node">
<title>r5</title>
<ellipse fill="#fdebd0" stroke="black" stroke-width="1.8" cx="215" cy="-11" rx="11" ry="11"/>
</g>
<!-- l3&#45;&gt;r5 -->
<g id="edge25" class="edge">
<title>l3&#45;&gt;r5</title>
<path fill="none" stroke="black" stroke-width="1.2" d="M232.86,-71.68C229.24,-59.58 223.97,-41.96 220.09,-29.01"/>
<polygon fill="black" stroke="black" stroke-width="1.2" points="222.35,-27.99 217.99,-21.99 217.65,-29.4 222.35,-27.99"/>
</g>
<!-- r6 -->
<g id="node19" class="node">
<title>r6</title>
<ellipse fill="#fdebd0" stroke="black" stroke-width="1.8" cx="266" cy="-11" rx="11" ry="11"/>
</g>
<!-- l3&#45;&gt;r6 -->
<g id="edge26" class="edge">
<title>l3&#45;&gt;r6</title>
<path fill="none" stroke="black" stroke-width="1.2" d="M242.45,-71.68C247.33,-59.32 254.47,-41.22 259.61,-28.2"/>
<polygon fill="black" stroke="black" stroke-width="1.2" points="261.94,-28.96 262.23,-21.55 257.38,-27.16 261.94,-28.96"/>
</g>
<!-- l4&#45;&gt;l5 -->
<g id="edge16" class="edge">
<title>l4&#45;&gt;l5</title>
<path fill="none" stroke="#666666" stroke-width="1.2" stroke-dasharray="1,5" d="M391.2,-86.5C391.92,-86.5 392.33,-86.5 392.33,-86.5 392.33,-86.5 404.5,-86.5 412.65,-86.5"/>
<polygon fill="#666666" stroke="#666666" stroke-width="1.2" points="412.8,-88.95 419.8,-86.5 412.8,-84.05 412.8,-88.95"/>
</g>
<!-- r7 -->
<g id="node20" class="node">
<title>r7</title>
<ellipse fill="#fdebd0" stroke="black" stroke-width="1.8" cx="317" cy="-11" rx="11" ry="11"/>
</g>
<!-- l4&#45;&gt;r7 -->
<g id="edge27" class="edge">
<title>l4&#45;&gt;r7</title>
<path fill="none" stroke="black" stroke-width="1.2" d="M356.78,-71.68C348.21,-58.81 335.47,-39.7 326.73,-26.6"/>
<polygon fill="black" stroke="black" stroke-width="1.2" points="328.72,-25.16 322.8,-20.7 324.64,-27.88 328.72,-25.16"/>
</g>
<!-- r8 -->
<g id="node21" class="node">
<title>r8</title>
<ellipse fill="#fdebd0" stroke="black" stroke-width="1.8" cx="368" cy="-11" rx="11" ry="11"/>
</g>
<!-- l4&#45;&gt;r8 -->
<g id="edge28" class="edge">
<title>l4&#45;&gt;r8</title>
<path fill="none" stroke="black" stroke-width="1.2" d="M366.38,-71.68C366.7,-59.72 367.17,-42.37 367.53,-29.45"/>
<polygon fill="black" stroke="black" stroke-width="1.2" points="369.97,-29.5 367.72,-22.44 365.08,-29.37 369.97,-29.5"/>
</g>
<!-- l5&#45;&gt;l6 -->
<g id="edge17" class="edge">
<title>l5&#45;&gt;l6</title>
<path fill="none" stroke="#666666" stroke-width="1.2" stroke-dasharray="1,5" d="M470.2,-86.5C470.92,-86.5 471.33,-86.5 471.33,-86.5 471.33,-86.5 483.5,-86.5 491.65,-86.5"/>
<polygon fill="#666666" stroke="#666666" stroke-width="1.2" points="491.8,-88.95 498.8,-86.5 491.8,-84.05 491.8,-88.95"/>
</g>
<!-- r9 -->
<g id="node22" class="node">
<title>r9</title>
<ellipse fill="#fdebd0" stroke="black" stroke-width="1.8" cx="419" cy="-11" rx="11" ry="11"/>
</g>
<!-- l5&#45;&gt;r9 -->
<g id="edge29" class="edge">
<title>l5&#45;&gt;r9</title>
<path fill="none" stroke="black" stroke-width="1.2" d="M440.11,-71.68C435.74,-59.32 429.34,-41.22 424.73,-28.2"/>
<polygon fill="black" stroke="black" stroke-width="1.2" points="427.02,-27.33 422.38,-21.55 422.4,-28.97 427.02,-27.33"/>
</g>
<!-- r10 -->
<g id="node23" class="node">
<title>r10</title>
<ellipse fill="#fdebd0" stroke="black" stroke-width="1.8" cx="470" cy="-11" rx="11" ry="11"/>
</g>
<!-- l5&#45;&gt;r10 -->
<g id="edge30" class="edge">
<title>l5&#45;&gt;r10</title>
<path fill="none" stroke="black" stroke-width="1.2" d="M449.7,-71.68C453.9,-59.32 460.06,-41.22 464.49,-28.2"/>
<polygon fill="black" stroke="black" stroke-width="1.2" points="466.82,-28.97 466.75,-21.55 462.18,-27.39 466.82,-28.97"/>
</g>
<!-- l6&#45;&gt;l7 -->
<g id="edge18" class="edge">
<title>l6&#45;&gt;l7</title>
<path fill="none" stroke="#666666" stroke-width="1.2" stroke-dasharray="1,5" d="M549.31,-86.5C558.5,-86.5 566.67,-86.5 566.67,-86.5 566.67,-86.5 609.33,-86.5 609.33,-86.5 609.33,-86.5 613.55,-86.5 619.34,-86.5"/>
<polygon fill="#666666" stroke="#666666" stroke-width="1.2" points="619.69,-88.95 626.69,-86.5 619.69,-84.05 619.69,-88.95"/>
</g>
<!-- r11 -->
<g id="node24" class="node">
<title>r11</title>
<ellipse fill="#fdebd0" stroke="black" stroke-width="1.8" cx="521" cy="-11" rx="11" ry="11"/>
</g>
<!-- l6&#45;&gt;r11 -->
<g id="edge31" class="edge">
<title>l6&#45;&gt;r11</title>
<path fill="none" stroke="black" stroke-width="1.2" d="M523.44,-71.68C522.95,-59.72 522.24,-42.37 521.71,-29.45"/>
<polygon fill="black" stroke="black" stroke-width="1.2" points="524.16,-29.33 521.43,-22.44 519.26,-29.53 524.16,-29.33"/>
</g>
<!-- r12 -->
<g id="node25" class="node">
<title>r12</title>
<ellipse fill="#fdebd0" stroke="black" stroke-width="1.8" cx="572" cy="-11" rx="11" ry="11"/>
</g>
<!-- l6&#45;&gt;r12 -->
<g id="edge32" class="edge">
<title>l6&#45;&gt;r12</title>
<path fill="none" stroke="black" stroke-width="1.2" d="M533.03,-71.68C541.43,-58.81 553.91,-39.7 562.47,-26.6"/>
<polygon fill="black" stroke="black" stroke-width="1.2" points="564.54,-27.9 566.32,-20.7 560.44,-25.22 564.54,-27.9"/>
</g>
<!-- l7&#45;&gt;l8 -->
<g id="edge19" class="edge">
<title>l7&#45;&gt;l8</title>
<path fill="none" stroke="#666666" stroke-width="1.2" stroke-dasharray="1,5" d="M677.2,-86.5C677.92,-86.5 678.33,-86.5 678.33,-86.5 678.33,-86.5 690.5,-86.5 698.65,-86.5"/>
<polygon fill="#666666" stroke="#666666" stroke-width="1.2" points="698.8,-88.95 705.8,-86.5 698.8,-84.05 698.8,-88.95"/>
</g>
<!-- r13 -->
<g id="node26" class="node">
<title>r13</title>
<ellipse fill="#fdebd0" stroke="black" stroke-width="1.8" cx="623" cy="-11" rx="11" ry="11"/>
</g>
<!-- l7&#45;&gt;r13 -->
<g id="edge33" class="edge">
<title>l7&#45;&gt;r13</title>
<path fill="none" stroke="black" stroke-width="1.2" d="M646.55,-71.68C641.67,-59.32 634.53,-41.22 629.39,-28.2"/>
<polygon fill="black" stroke="black" stroke-width="1.2" points="631.62,-27.16 626.77,-21.55 627.06,-28.96 631.62,-27.16"/>
</g>
<!-- r14 -->
<g id="node27" class="node">
<title>r14</title>
<ellipse fill="#fdebd0" stroke="black" stroke-width="1.8" cx="674" cy="-11" rx="11" ry="11"/>
</g>
<!-- l7&#45;&gt;r14 -->
<g id="edge34" class="edge">
<title>l7&#45;&gt;r14</title>
<path fill="none" stroke="black" stroke-width="1.2" d="M656.14,-71.68C659.76,-59.58 665.03,-41.96 668.91,-29.01"/>
<polygon fill="black" stroke="black" stroke-width="1.2" points="671.35,-29.4 671.01,-21.99 666.65,-27.99 671.35,-29.4"/>
</g>
<!-- l8&#45;&gt;l9 -->
<g id="edge20" class="edge">
<title>l8&#45;&gt;l9</title>
<path fill="none" stroke="#666666" stroke-width="1.2" stroke-dasharray="1,5" d="M756.05,-86.5C759.01,-86.5 761,-86.5 761,-86.5 761,-86.5 778.23,-86.5 788.73,-86.5"/>
<polygon fill="#666666" stroke="#666666" stroke-width="1.2" points="788.95,-88.95 795.95,-86.5 788.95,-84.05 788.95,-88.95"/>
</g>
<!-- r15 -->
<g id="node28" class="node">
<title>r15</title>
<ellipse fill="#fdebd0" stroke="black" stroke-width="1.8" cx="725" cy="-11" rx="11" ry="11"/>
</g>
<!-- l8&#45;&gt;r15 -->
<g id="edge35" class="edge">
<title>l8&#45;&gt;r15</title>
<path fill="none" stroke="black" stroke-width="1.2" d="M729.87,-71.68C728.88,-59.58 727.45,-41.96 726.39,-29.01"/>
<polygon fill="black" stroke="black" stroke-width="1.2" points="728.83,-28.77 725.82,-21.99 723.94,-29.17 728.83,-28.77"/>
</g>
<!-- r16 -->
<g id="node29" class="node">
<title>r16</title>
<ellipse fill="#fdebd0" stroke="black" stroke-width="1.8" cx="776" cy="-11" rx="11" ry="11"/>
</g>
<!-- l8&#45;&gt;r16 -->
<g id="edge36" class="edge">
<title>l8&#45;&gt;r16</title>
<path fill="none" stroke="black" stroke-width="1.2" d="M739.46,-71.68C747.27,-58.93 758.83,-40.05 766.84,-26.96"/>
<polygon fill="black" stroke="black" stroke-width="1.2" points="769.11,-27.95 770.68,-20.7 764.93,-25.39 769.11,-27.95"/>
</g>
<!-- r17 -->
<g id="node30" class="node">
<title>r17</title>
<ellipse fill="#fdebd0" stroke="black" stroke-width="1.8" cx="827" cy="-11" rx="11" ry="11"/>
</g>
<!-- l9&#45;&gt;r17 -->
<g id="edge37" class="edge">
<title>l9&#45;&gt;r17</title>
<path fill="none" stroke="black" stroke-width="1.2" d="M822.13,-71.68C823.12,-59.58 824.55,-41.96 825.61,-29.01"/>
<polygon fill="black" stroke="black" stroke-width="1.2" points="828.06,-29.17 826.18,-21.99 823.17,-28.77 828.06,-29.17"/>
</g>
<!-- r18 -->
<g id="node31" class="node">
<title>r18</title>
<ellipse fill="#fdebd0" stroke="black" stroke-width="1.8" cx="878" cy="-11" rx="11" ry="11"/>
</g>
<!-- l9&#45;&gt;r18 -->
<g id="edge38" class="edge">
<title>l9&#45;&gt;r18</title>
<path fill="none" stroke="black" stroke-width="1.2" d="M831.72,-71.68C841.81,-58.67 856.85,-39.28 867.02,-26.16"/>
<polygon fill="black" stroke="black" stroke-width="1.2" points="869.22,-27.31 871.58,-20.28 865.35,-24.31 869.22,-27.31"/>
</g>
</g>
</svg>
