<?xml version="1.0" encoding="UTF-8" standalone="no"?>
<!DOCTYPE svg PUBLIC "-//W3C//DTD SVG 1.1//EN"
 "http://www.w3.org/Graphics/SVG/1.1/DTD/svg11.dtd">
<!-- Generated by graphviz version 2.43.0 (0)
 -->
<!-- Title: BPlusTreeLogo Pages: 1 -->
<svg width="933pt" height="269pt"
 viewBox="0.00 0.00 933.04 269.04" xmlns="http://www.w3.org/2000/svg" xmlns:xlink="http://www.w3.org/1999/xlink">
<g id="graph0" class="graph" transform="scale(1 1) rotate(0) translate(4 265.04)">
<title>BPlusTreeLogo</title>
<polygon fill="white" stroke="transparent" points="-4,4 -4,-265.04 929.04,-265.04 929.04,4 -4,4"/>
<!-- root -->
<g id="node1" class="node">
<title>root</title>
<polygon fill="#d6eaf8" stroke="#5499c7" stroke-width="1.8" points="487.02,-261.04 437.02,-261.04 437.02,-232.04 487.02,-232.04 487.02,-261.04"/>
<text text-anchor="middle" x="462.02" y="-244.04" font-family="Helvetica,Arial,sans-serif" font-size="10.00">• | •</text>
</g>
<!-- intL -->
<g id="node2" class="node">
<title>intL</title>
<polygon fill="#e8daef" stroke="#8e44ad" stroke-width="1.8" points="229.02,-182.04 179.02,-182.04 179.02,-153.04 229.02,-153.04 229.02,-182.04"/>
<text text-anchor="middle" x="204.02" y="-165.04" font-family="Helvetica,Arial,sans-serif" font-size="10.00">• | • | •</text>
</g>
<!-- root&#45;&gt;intL -->
<g id="edge1" class="edge">
<title>root&#45;&gt;intL</title>
<path fill="none" stroke="black" stroke-width="1.2" d="M436.81,-238.02C389.71,-223.96 288.39,-193.72 236.34,-178.19"/>
<polygon fill="black" stroke="black" stroke-width="1.2" points="236.74,-175.75 229.33,-176.1 235.34,-180.45 236.74,-175.75"/>
</g>
<!-- intM -->
<g id="node3" class="node">
<title>intM</title>
<polygon fill="#e8daef" stroke="#8e44ad" stroke-width="1.8" points="487.02,-182.04 437.02,-182.04 437.02,-153.04 487.02,-153.04 487.02,-182.04"/>
<text text-anchor="middle" x="462.02" y="-165.04" font-family="Helvetica,Arial,sans-serif" font-size="10.00">• | • | •</text>
</g>
<!-- root&#45;&gt;intM -->
<g id="edge2" class="edge">
<title>root&#45;&gt;intM</title>
<path fill="none" stroke="black" stroke-width="1.2" d="M462.02,-231.78C462.02,-219.95 462.02,-202.73 462.02,-189.24"/>
<polygon fill="black" stroke="black" stroke-width="1.2" points="464.47,-189.19 462.02,-182.19 459.57,-189.19 464.47,-189.19"/>
</g>
<!-- intR -->
<g id="node4" class="node">
<title>intR</title>
<polygon fill="#e8daef" stroke="#8e44ad" stroke-width="1.8" points="746.02,-182.04 696.02,-182.04 696.02,-153.04 746.02,-153.04 746.02,-182.04"/>
<text text-anchor="middle" x="721.02" y="-165.04" font-family="Helvetica,Arial,sans-serif" font-size="10.00">• | • | •</text>
</g>
<!-- root&#45;&gt;intR -->
<g id="edge3" class="edge">
<title>root&#45;&gt;intR</title>
<path fill="none" stroke="black" stroke-width="1.2" d="M487.33,-238.02C534.74,-223.92 636.85,-193.57 688.98,-178.07"/>
<polygon fill="black" stroke="black" stroke-width="1.2" points="689.98,-180.33 695.99,-175.98 688.59,-175.63 689.98,-180.33"/>
</g>
<!-- l1 -->
<g id="node5" class="node">
<title>l1</title>
<polygon fill="#d5f5e3" stroke="#28b463" stroke-width="1.8" points="97.02,-103.04 47.02,-103.04 47.02,-74.04 97.02,-74.04 97.02,-103.04"/>
<text text-anchor="middle" x="72.02" y="-86.04" font-family="Helvetica,Arial,sans-serif" font-size="10.00">• •</text>
</g>
<!-- intL&#45;&gt;l1 -->
<g id="edge4" class="edge">
<title>intL&#45;&gt;l1</title>
<path fill="none" stroke="black" stroke-width="1.2" d="M180.73,-152.95C158.71,-140.11 125.59,-120.79 101.7,-106.85"/>
<polygon fill="black" stroke="black" stroke-width="1.2" points="102.81,-104.66 95.53,-103.25 100.34,-108.9 102.81,-104.66"/>
</g>
<!-- l2 -->
<g id="node6" class="node">
<title>l2</title>
<polygon fill="#d5f5e3" stroke="#28b463" stroke-width="1.8" points="189.02,-103.04 139.02,-103.04 139.02,-74.04 189.02,-74.04 189.02,-103.04"/>
<text text-anchor="middle" x="164.02" y="-86.04" font-family="Helvetica,Arial,sans-serif" font-size="10.00">• •</text>
</g>
<!-- intL&#45;&gt;l2 -->
<g id="edge5" class="edge">
<title>intL&#45;&gt;l2</title>
<path fill="none" stroke="black" stroke-width="1.2" d="M196.87,-152.78C190.61,-140.73 181.45,-123.09 174.39,-109.49"/>
<polygon fill="black" stroke="black" stroke-width="1.2" points="176.51,-108.27 171.11,-103.19 172.16,-110.53 176.51,-108.27"/>
</g>
<!-- l3 -->
<g id="node7" class="node">
<title>l3</title>
<polygon fill="#d5f5e3" stroke="#28b463" stroke-width="1.8" points="268.02,-103.04 218.02,-103.04 218.02,-74.04 268.02,-74.04 268.02,-103.04"/>
<text text-anchor="middle" x="243.02" y="-86.04" font-family="Helvetica,Arial,sans-serif" font-size="10.00">• •</text>
</g>
<!-- intL&#45;&gt;l3 -->
<g id="edge6" class="edge">
<title>intL&#45;&gt;l3</title>
<path fill="none" stroke="black" stroke-width="1.2" d="M210.99,-152.78C217.09,-140.73 226.03,-123.09 232.92,-109.49"/>
<polygon fill="black" stroke="black" stroke-width="1.2" points="235.13,-110.54 236.11,-103.19 230.76,-108.33 235.13,-110.54"/>
</g>
<!-- l4 -->
<g id="node8" class="node">
<title>l4</title>
<polygon fill="#d5f5e3" stroke="#28b463" stroke-width="1.8" points="408.02,-103.04 358.02,-103.04 358.02,-74.04 408.02,-74.04 408.02,-103.04"/>
<text text-anchor="middle" x="383.02" y="-86.04" font-family="Helvetica,Arial,sans-serif" font-size="10.00">• •</text>
</g>
<!-- intM&#45;&gt;l4 -->
<g id="edge7" class="edge">
<title>intM&#45;&gt;l4</title>
<path fill="none" stroke="black" stroke-width="1.2" d="M447.9,-152.78C435.2,-140.4 416.44,-122.12 402.36,-108.39"/>
<polygon fill="black" stroke="black" stroke-width="1.2" points="403.75,-106.32 397.02,-103.19 400.32,-109.83 403.75,-106.32"/>
</g>
<!-- l5 -->
<g id="node9" class="node">
<title>l5</title>
<polygon fill="#d5f5e3" stroke="#28b463" stroke-width="1.8" points="487.02,-103.04 437.02,-103.04 437.02,-74.04 487.02,-74.04 487.02,-103.04"/>
<text text-anchor="middle" x="462.02" y="-86.04" font-family="Helvetica,Arial,sans-serif" font-size="10.00">• •</text>
</g>
<!-- intM&#45;&gt;l5 -->
<g id="edge8" class="edge">
<title>intM&#45;&gt;l5</title>
<path fill="none" stroke="black" stroke-width="1.2" d="M462.02,-152.78C462.02,-140.95 462.02,-123.73 462.02,-110.24"/>
<polygon fill="black" stroke="black" stroke-width="1.2" points="464.47,-110.19 462.02,-103.19 459.57,-110.19 464.47,-110.19"/>
</g>
<!-- l6 -->
<g id="node10" class="node">
<title>l6</title>
<polygon fill="#d5f5e3" stroke="#28b463" stroke-width="1.8" points="567.02,-103.04 517.02,-103.04 517.02,-74.04 567.02,-74.04 567.02,-103.04"/>
<text text-anchor="middle" x="542.02" y="-86.04" font-family="Helvetica,Arial,sans-serif" font-size="10.00">• •</text>
</g>
<!-- intM&#45;&gt;l6 -->
<g id="edge9" class="edge">
<title>intM&#45;&gt;l6</title>
<path fill="none" stroke="black" stroke-width="1.2" d="M476.32,-152.78C489.18,-140.4 508.17,-122.12 522.44,-108.39"/>
<polygon fill="black" stroke="black" stroke-width="1.2" points="524.5,-109.81 527.84,-103.19 521.1,-106.28 524.5,-109.81"/>
</g>
<!-- l7 -->
<g id="node11" class="node">
<title>l7</title>
<polygon fill="#d5f5e3" stroke="#28b463" stroke-width="1.8" points="707.02,-103.04 657.02,-103.04 657.02,-74.04 707.02,-74.04 707.02,-103.04"/>
<text text-anchor="middle" x="682.02" y="-86.04" font-family="Helvetica,Arial,sans-serif" font-size="10.00">• •</text>
</g>
<!-- intR&#45;&gt;l7 -->
<g id="edge10" class="edge">
<title>intR&#45;&gt;l7</title>
<path fill="none" stroke="black" stroke-width="1.2" d="M714.05,-152.78C707.95,-140.73 699.01,-123.09 692.13,-109.49"/>
<polygon fill="black" stroke="black" stroke-width="1.2" points="694.28,-108.33 688.93,-103.19 689.91,-110.54 694.28,-108.33"/>
</g>
<!-- l8 -->
<g id="node12" class="node">
<title>l8</title>
<polygon fill="#d5f5e3" stroke="#28b463" stroke-width="1.8" points="786.02,-103.04 736.02,-103.04 736.02,-74.04 786.02,-74.04 786.02,-103.04"/>
<text text-anchor="middle" x="761.02" y="-86.04" font-family="Helvetica,Arial,sans-serif" font-size="10.00">• •</text>
</g>
<!-- intR&#45;&gt;l8 -->
<g id="edge11" class="edge">
<title>intR&#45;&gt;l8</title>
<path fill="none" stroke="black" stroke-width="1.2" d="M728.17,-152.78C734.43,-140.73 743.6,-123.09 750.66,-109.49"/>
<polygon fill="black" stroke="black" stroke-width="1.2" points="752.88,-110.53 753.93,-103.19 748.53,-108.27 752.88,-110.53"/>
</g>
<!-- l9 -->
<g id="node13" class="node">
<title>l9</title>
<polygon fill="#d5f5e3" stroke="#28b463" stroke-width="1.8" points="878.02,-103.04 828.02,-103.04 828.02,-74.04 878.02,-74.04 878.02,-103.04"/>
<text text-anchor="middle" x="853.02" y="-86.04" font-family="Helvetica,Arial,sans-serif" font-size="10.00">• •</text>
</g>
<!-- intR&#45;&gt;l9 -->
<g id="edge12" class="edge">
<title>intR&#45;&gt;l9</title>
<path fill="none" stroke="black" stroke-width="1.2" d="M744.32,-152.95C766.33,-140.11 799.45,-120.79 823.34,-106.85"/>
<polygon fill="black" stroke="black" stroke-width="1.2" points="824.7,-108.9 829.51,-103.25 822.23,-104.66 824.7,-108.9"/>
</g>
<!-- l1&#45;&gt;l2 -->
<g id="edge13" class="edge">
<title>l1&#45;&gt;l2</title>
<path fill="none" stroke="#666666" stroke-width="1.2" stroke-dasharray="1,5" d="M97.06,-88.54C100.39,-88.54 102.69,-88.54 102.69,-88.54 102.69,-88.54 121.03,-88.54 131.95,-88.54"/>
<polygon fill="#666666" stroke="#666666" stroke-width="1.2" points="131.98,-90.99 138.98,-88.54 131.98,-86.09 131.98,-90.99"/>
</g>
<!-- r1 -->
<g id="node14" class="node">
<title>r1</title>
<ellipse fill="#fdebd0" stroke="black" stroke-width="1.8" cx="12.02" cy="-12.02" rx="12.04" ry="12.04"/>
<text text-anchor="middle" x="12.02" y="-10.12" font-family="Helvetica,sans-Serif" font-size="8.00">•</text>
</g>
<!-- l1&#45;&gt;r1 -->
<g id="edge21" class="edge">
<title>l1&#45;&gt;r1</title>
<path fill="none" stroke="black" stroke-width="1.2" d="M61.02,-73.87C50.45,-60.76 34.56,-41.01 23.76,-27.6"/>
<polygon fill="black" stroke="black" stroke-width="1.2" points="25.49,-25.84 19.19,-21.93 21.67,-28.92 25.49,-25.84"/>
</g>
<!-- r2 -->
<g id="node15" class="node">
<title>r2</title>
<ellipse fill="#fdebd0" stroke="black" stroke-width="1.8" cx="65.02" cy="-12.02" rx="12.04" ry="12.04"/>
<text text-anchor="middle" x="65.02" y="-10.12" font-family="Helvetica,sans-Serif" font-size="8.00">•</text>
</g>
<!-- l1&#45;&gt;r2 -->
<g id="edge22" class="edge">
<title>l1&#45;&gt;r2</title>
<path fill="none" stroke="black" stroke-width="1.2" d="M70.74,-73.87C69.62,-61.93 67.98,-44.5 66.74,-31.35"/>
<polygon fill="black" stroke="black" stroke-width="1.2" points="69.16,-30.91 66.07,-24.17 64.28,-31.37 69.16,-30.91"/>
</g>
<!-- l2&#45;&gt;l3 -->
<g id="edge14" class="edge">
<title>l2&#45;&gt;l3</title>
<path fill="none" stroke="#666666" stroke-width="1.2" stroke-dasharray="1,5" d="M189.22,-88.54C189.94,-88.54 190.35,-88.54 190.35,-88.54 190.35,-88.54 202.52,-88.54 210.67,-88.54"/>
<polygon fill="#666666" stroke="#666666" stroke-width="1.2" points="210.82,-90.99 217.82,-88.54 210.82,-86.09 210.82,-90.99"/>
</g>
<!-- r3 -->
<g id="node16" class="node">
<title>r3</title>
<ellipse fill="#fdebd0" stroke="black" stroke-width="1.8" cx="118.02" cy="-12.02" rx="12.04" ry="12.04"/>
<text text-anchor="middle" x="118.02" y="-10.12" font-family="Helvetica,sans-Serif" font-size="8.00">•</text>
</g>
<!-- l2&#45;&gt;r3 -->
<g id="edge23" class="edge">
<title>l2&#45;&gt;r3</title>
<path fill="none" stroke="black" stroke-width="1.2" d="M155.58,-73.87C147.74,-61.16 136.05,-42.23 127.8,-28.86"/>
<polygon fill="black" stroke="black" stroke-width="1.2" points="129.82,-27.47 124.06,-22.8 125.65,-30.04 129.82,-27.47"/>
</g>
<!-- r4 -->
<g id="node17" class="node">
<title>r4</title>
<ellipse fill="#fdebd0" stroke="black" stroke-width="1.8" cx="171.02" cy="-12.02" rx="12.04" ry="12.04"/>
<text text-anchor="middle" x="171.02" y="-10.12" font-family="Helvetica,sans-Serif" font-size="8.00">•</text>
</g>
<!-- l2&#45;&gt;r4 -->
<g id="edge24" class="edge">
<title>l2&#45;&gt;r4</title>
<path fill="none" stroke="black" stroke-width="1.2" d="M165.3,-73.87C166.43,-61.93 168.06,-44.5 169.3,-31.35"/>
<polygon fill="black" stroke="black" stroke-width="1.2" points="171.76,-31.37 169.97,-24.17 166.88,-30.91 171.76,-31.37"/>
</g>
<!-- l3&#45;&gt;l4 -->
<g id="edge15" class="edge">
<title>l3&#45;&gt;l4</title>
<path fill="none" stroke="#666666" stroke-width="1.2" stroke-dasharray="1,5" d="M268.27,-88.54C279.26,-88.54 289.69,-88.54 289.69,-88.54 289.69,-88.54 336.35,-88.54 336.35,-88.54 336.35,-88.54 342.72,-88.54 350.74,-88.54"/>
<polygon fill="#666666" stroke="#666666" stroke-width="1.2" points="350.78,-90.99 357.78,-88.54 350.78,-86.09 350.78,-90.99"/>
</g>
<!-- r5 -->
<g id="node18" class="node">
<title>r5</title>
<ellipse fill="#fdebd0" stroke="black" stroke-width="1.8" cx="224.02" cy="-12.02" rx="12.04" ry="12.04"/>
<text text-anchor="middle" x="224.02" y="-10.12" font-family="Helvetica,sans-Serif" font-size="8.00">•</text>
</g>
<!-- l3&#45;&gt;r5 -->
<g id="edge25" class="edge">
<title>l3&#45;&gt;r5</title>
<path fill="none" stroke="black" stroke-width="1.2" d="M239.54,-73.87C236.46,-61.82 231.96,-44.17 228.6,-30.98"/>
<polygon fill="black" stroke="black" stroke-width="1.2" points="230.97,-30.35 226.86,-24.17 226.22,-31.56 230.97,-30.35"/>
</g>
<!-- r6 -->
<g id="node19" class="node">
<title>r6</title>
<ellipse fill="#fdebd0" stroke="black" stroke-width="1.8" cx="277.02" cy="-12.02" rx="12.04" ry="12.04"/>
<text text-anchor="middle" x="277.02" y="-10.12" font-family="Helvetica,sans-Serif" font-size="8.00">•</text>
</g>
<!-- l3&#45;&gt;r6 -->
<g id="edge26" class="edge">
<title>l3&#45;&gt;r6</title>
<path fill="none" stroke="black" stroke-width="1.2" d="M249.26,-73.87C254.94,-61.42 263.34,-43 269.42,-29.69"/>
<polygon fill="black" stroke="black" stroke-width="1.2" points="271.68,-30.64 272.35,-23.25 267.22,-28.6 271.68,-30.64"/>
</g>
<!-- l4&#45;&gt;l5 -->
<g id="edge16" class="edge">
<title>l4&#45;&gt;l5</title>
<path fill="none" stroke="#666666" stroke-width="1.2" stroke-dasharray="1,5" d="M408.22,-88.54C408.94,-88.54 409.35,-88.54 409.35,-88.54 409.35,-88.54 421.52,-88.54 429.67,-88.54"/>
<polygon fill="#666666" stroke="#666666" stroke-width="1.2" points="429.82,-90.99 436.82,-88.54 429.82,-86.09 429.82,-90.99"/>
</g>
<!-- r7 -->
<g id="node20" class="node">
<title>r7</title>
<ellipse fill="#fdebd0" stroke="black" stroke-width="1.8" cx="330.02" cy="-12.02" rx="12.04" ry="12.04"/>
<text text-anchor="middle" x="330.02" y="-10.12" font-family="Helvetica,sans-Serif" font-size="8.00">•</text>
</g>
<!-- l4&#45;&gt;r7 -->
<g id="edge27" class="edge">
<title>l4&#45;&gt;r7</title>
<path fill="none" stroke="black" stroke-width="1.2" d="M373.3,-73.87C364.16,-61.02 350.49,-41.8 340.97,-28.41"/>
<polygon fill="black" stroke="black" stroke-width="1.2" points="342.72,-26.64 336.66,-22.36 338.72,-29.48 342.72,-26.64"/>
</g>
<!-- r8 -->
<g id="node21" class="node">
<title>r8</title>
<ellipse fill="#fdebd0" stroke="black" stroke-width="1.8" cx="383.02" cy="-12.02" rx="12.04" ry="12.04"/>
<text text-anchor="middle" x="383.02" y="-10.12" font-family="Helvetica,sans-Serif" font-size="8.00">•</text>
</g>
<!-- l4&#45;&gt;r8 -->
<g id="edge28" class="edge">
<title>l4&#45;&gt;r8</title>
<path fill="none" stroke="black" stroke-width="1.2" d="M383.02,-73.87C383.02,-61.93 383.02,-44.5 383.02,-31.35"/>
<polygon fill="black" stroke="black" stroke-width="1.2" points="385.47,-31.17 383.02,-24.17 380.57,-31.17 385.47,-31.17"/>
</g>
<!-- l5&#45;&gt;l6 -->
<g id="edge17" class="edge">
<title>l5&#45;&gt;l6</title>
<path fill="none" stroke="#666666" stroke-width="1.2" stroke-dasharray="1,5" d="M487.25,-88.54C488.16,-88.54 488.69,-88.54 488.69,-88.54 488.69,-88.54 501.29,-88.54 509.64,-88.54"/>
<polygon fill="#666666" stroke="#666666" stroke-width="1.2" points="509.79,-90.99 516.79,-88.54 509.79,-86.09 509.79,-90.99"/>
</g>
<!-- r9 -->
<g id="node22" class="node">
<title>r9</title>
<ellipse fill="#fdebd0" stroke="black" stroke-width="1.8" cx="436.02" cy="-12.02" rx="12.04" ry="12.04"/>
<text text-anchor="middle" x="436.02" y="-10.12" font-family="Helvetica,sans-Serif" font-size="8.00">•</text>
</g>
<!-- l5&#45;&gt;r9 -->
<g id="edge29" class="edge">
<title>l5&#45;&gt;r9</title>
<path fill="none" stroke="black" stroke-width="1.2" d="M457.25,-73.87C453,-61.68 446.74,-43.75 442.12,-30.51"/>
<polygon fill="black" stroke="black" stroke-width="1.2" points="444.37,-29.51 439.75,-23.71 439.74,-31.12 444.37,-29.51"/>
</g>
<!-- r10 -->
<g id="node23" class="node">
<title>r10</title>
<ellipse fill="#fdebd0" stroke="black" stroke-width="1.8" cx="489.02" cy="-12.02" rx="12.04" ry="12.04"/>
<text text-anchor="middle" x="489.02" y="-10.12" font-family="Helvetica,sans-Serif" font-size="8.00">•</text>
</g>
<!-- l5&#45;&gt;r10 -->
<g id="edge30" class="edge">
<title>l5&#45;&gt;r10</title>
<path fill="none" stroke="black" stroke-width="1.2" d="M466.97,-73.87C471.39,-61.68 477.89,-43.75 482.68,-30.51"/>
<polygon fill="black" stroke="black" stroke-width="1.2" points="485.07,-31.12 485.15,-23.71 480.46,-29.45 485.07,-31.12"/>
</g>
<!-- l6&#45;&gt;l7 -->
<g id="edge18" class="edge">
<title>l6&#45;&gt;l7</title>
<path fill="none" stroke="#666666" stroke-width="1.2" stroke-dasharray="1,5" d="M567.27,-88.54C578.26,-88.54 588.69,-88.54 588.69,-88.54 588.69,-88.54 635.35,-88.54 635.35,-88.54 635.35,-88.54 641.72,-88.54 649.74,-88.54"/>
<polygon fill="#666666" stroke="#666666" stroke-width="1.2" points="649.78,-90.99 656.78,-88.54 649.78,-86.09 649.78,-90.99"/>
</g>
<!-- r11 -->
<g id="node24" class="node">
<title>r11</title>
<ellipse fill="#fdebd0" stroke="black" stroke-width="1.8" cx="542.02" cy="-12.02" rx="12.04" ry="12.04"/>
<text text-anchor="middle" x="542.02" y="-10.12" font-family="Helvetica,sans-Serif" font-size="8.00">•</text>
</g>
<!-- l6&#45;&gt;r11 -->
<g id="edge31" class="edge">
<title>l6&#45;&gt;r11</title>
<path fill="none" stroke="black" stroke-width="1.2" d="M542.02,-73.87C542.02,-61.93 542.02,-44.5 542.02,-31.35"/>
<polygon fill="black" stroke="black" stroke-width="1.2" points="544.47,-31.17 542.02,-24.17 539.57,-31.17 544.47,-31.17"/>
</g>
<!-- r12 -->
<g id="node25" class="node">
<title>r12</title>
<ellipse fill="#fdebd0" stroke="black" stroke-width="1.8" cx="595.02" cy="-12.02" rx="12.04" ry="12.04"/>
<text text-anchor="middle" x="595.02" y="-10.12" font-family="Helvetica,sans-Serif" font-size="8.00">•</text>
</g>
<!-- l6&#45;&gt;r12 -->
<g id="edge32" class="edge">
<title>l6&#45;&gt;r12</title>
<path fill="none" stroke="black" stroke-width="1.2" d="M551.74,-73.87C560.88,-61.02 574.55,-41.8 584.08,-28.41"/>
<polygon fill="black" stroke="black" stroke-width="1.2" points="586.32,-29.48 588.38,-22.36 582.33,-26.64 586.32,-29.48"/>
</g>
<!-- l7&#45;&gt;l8 -->
<g id="edge19" class="edge">
<title>l7&#45;&gt;l8</title>
<path fill="none" stroke="#666666" stroke-width="1.2" stroke-dasharray="1,5" d="M707.22,-88.54C707.94,-88.54 708.35,-88.54 708.35,-88.54 708.35,-88.54 720.52,-88.54 728.67,-88.54"/>
<polygon fill="#666666" stroke="#666666" stroke-width="1.2" points="728.82,-90.99 735.82,-88.54 728.82,-86.09 728.82,-90.99"/>
</g>
<!-- r13 -->
<g id="node26" class="node">
<title>r13</title>
<ellipse fill="#fdebd0" stroke="black" stroke-width="1.8" cx="648.02" cy="-12.02" rx="12.04" ry="12.04"/>
<text text-anchor="middle" x="648.02" y="-10.12" font-family="Helvetica,sans-Serif" font-size="8.00">•</text>
</g>
<!-- l7&#45;&gt;r13 -->
<g id="edge33" class="edge">
<title>l7&#45;&gt;r13</title>
<path fill="none" stroke="black" stroke-width="1.2" d="M675.78,-73.87C670.1,-61.42 661.7,-43 655.62,-29.69"/>
<polygon fill="black" stroke="black" stroke-width="1.2" points="657.82,-28.6 652.69,-23.25 653.36,-30.64 657.82,-28.6"/>
</g>
<!-- r14 -->
<g id="node27" class="node">
<title>r14</title>
<ellipse fill="#fdebd0" stroke="black" stroke-width="1.8" cx="701.02" cy="-12.02" rx="12.04" ry="12.04"/>
<text text-anchor="middle" x="701.02" y="-10.12" font-family="Helvetica,sans-Serif" font-size="8.00">•</text>
</g>
<!-- l7&#45;&gt;r14 -->
<g id="edge34" class="edge">
<title>l7&#45;&gt;r14</title>
<path fill="none" stroke="black" stroke-width="1.2" d="M685.51,-73.87C688.58,-61.82 693.08,-44.17 696.44,-30.98"/>
<polygon fill="black" stroke="black" stroke-width="1.2" points="698.82,-31.56 698.18,-24.17 694.07,-30.35 698.82,-31.56"/>
</g>
<!-- l8&#45;&gt;l9 -->
<g id="edge20" class="edge">
<title>l8&#45;&gt;l9</title>
<path fill="none" stroke="#666666" stroke-width="1.2" stroke-dasharray="1,5" d="M786.06,-88.54C789.39,-88.54 791.69,-88.54 791.69,-88.54 791.69,-88.54 810.03,-88.54 820.95,-88.54"/>
<polygon fill="#666666" stroke="#666666" stroke-width="1.2" points="820.98,-90.99 827.98,-88.54 820.98,-86.09 820.98,-90.99"/>
</g>
<!-- r15 -->
<g id="node28" class="node">
<title>r15</title>
<ellipse fill="#fdebd0" stroke="black" stroke-width="1.8" cx="754.02" cy="-12.02" rx="12.04" ry="12.04"/>
<text text-anchor="middle" x="754.02" y="-10.12" font-family="Helvetica,sans-Serif" font-size="8.00">•</text>
</g>
<!-- l8&#45;&gt;r15 -->
<g id="edge35" class="edge">
<title>l8&#45;&gt;r15</title>
<path fill="none" stroke="black" stroke-width="1.2" d="M759.74,-73.87C758.62,-61.93 756.98,-44.5 755.74,-31.35"/>
<polygon fill="black" stroke="black" stroke-width="1.2" points="758.16,-30.91 755.07,-24.17 753.28,-31.37 758.16,-30.91"/>
</g>
<!-- r16 -->
<g id="node29" class="node">
<title>r16</title>
<ellipse fill="#fdebd0" stroke="black" stroke-width="1.8" cx="807.02" cy="-12.02" rx="12.04" ry="12.04"/>
<text text-anchor="middle" x="807.02" y="-10.12" font-family="Helvetica,sans-Serif" font-size="8.00">•</text>
</g>
<!-- l8&#45;&gt;r16 -->
<g id="edge36" class="edge">
<title>l8&#45;&gt;r16</title>
<path fill="none" stroke="black" stroke-width="1.2" d="M769.46,-73.87C777.3,-61.16 788.99,-42.23 797.24,-28.86"/>
<polygon fill="black" stroke="black" stroke-width="1.2" points="799.39,-30.04 800.98,-22.8 795.22,-27.47 799.39,-30.04"/>
</g>
<!-- r17 -->
<g id="node30" class="node">
<title>r17</title>
<ellipse fill="#fdebd0" stroke="black" stroke-width="1.8" cx="860.02" cy="-12.02" rx="12.04" ry="12.04"/>
<text text-anchor="middle" x="860.02" y="-10.12" font-family="Helvetica,sans-Serif" font-size="8.00">•</text>
</g>
<!-- l9&#45;&gt;r17 -->
<g id="edge37" class="edge">
<title>l9&#45;&gt;r17</title>
<path fill="none" stroke="black" stroke-width="1.2" d="M854.3,-73.87C855.43,-61.93 857.06,-44.5 858.3,-31.35"/>
<polygon fill="black" stroke="black" stroke-width="1.2" points="860.76,-31.37 858.97,-24.17 855.88,-30.91 860.76,-31.37"/>
</g>
<!-- r18 -->
<g id="node31" class="node">
<title>r18</title>
<ellipse fill="#fdebd0" stroke="black" stroke-width="1.8" cx="913.02" cy="-12.02" rx="12.04" ry="12.04"/>
<text text-anchor="middle" x="913.02" y="-10.12" font-family="Helvetica,sans-Serif" font-size="8.00">•</text>
</g>
<!-- l9&#45;&gt;r18 -->
<g id="edge38" class="edge">
<title>l9&#45;&gt;r18</title>
<path fill="none" stroke="black" stroke-width="1.2" d="M864.03,-73.87C874.59,-60.76 890.48,-41.01 901.28,-27.6"/>
<polygon fill="black" stroke="black" stroke-width="1.2" points="903.37,-28.92 905.85,-21.93 899.55,-25.84 903.37,-28.92"/>
</g>
</g>
</svg>
