<?xml version="1.0" encoding="UTF-8" standalone="no"?>
<!DOCTYPE svg PUBLIC "-//W3C//DTD SVG 1.1//EN"
 "http://www.w3.org/Graphics/SVG/1.1/DTD/svg11.dtd">
<!-- Generated by graphviz version 2.43.0 (0)
 -->
<!-- Title: BPlusTree Pages: 1 -->
<svg width="943pt" height="284pt"
 viewBox="0.00 0.00 943.43 283.85" xmlns="http://www.w3.org/2000/svg" xmlns:xlink="http://www.w3.org/1999/xlink">
<g id="graph0" class="graph" transform="scale(1 1) rotate(0) translate(4 279.85)">
<title>BPlusTree</title>
<polygon fill="white" stroke="transparent" points="-4,4 -4,-279.85 939.43,-279.85 939.43,4 -4,4"/>
<!-- root -->
<g id="node1" class="node">
<title>root</title>
<polygon fill="#e5e5e5" stroke="#e5e5e5" stroke-width="1.5" points="486,-275.85 432,-275.85 432,-239.85 486,-239.85 486,-275.85"/>
<text text-anchor="middle" x="459" y="-255.35" font-family="Helvetica,Arial,sans-serif" font-size="10.00">13</text>
</g>
<!-- intL -->
<g id="node2" class="node">
<title>intL</title>
<polygon fill="#e5e5e5" stroke="#e5e5e5" stroke-width="1.5" points="335,-196.85 281,-196.85 281,-160.85 335,-160.85 335,-196.85"/>
<text text-anchor="middle" x="308" y="-176.35" font-family="Helvetica,Arial,sans-serif" font-size="10.00">4 | 7</text>
</g>
<!-- root&#45;&gt;intL -->
<g id="edge1" class="edge">
<title>root&#45;&gt;intL</title>
<path fill="none" stroke="black" d="M431.66,-242.91C407.18,-230.42 371.1,-212.03 344.23,-198.33"/>
<polygon fill="black" stroke="black" points="345.64,-195.12 335.14,-193.69 342.46,-201.35 345.64,-195.12"/>
</g>
<!-- intR -->
<g id="node3" class="node">
<title>intR</title>
<polygon fill="#e5e5e5" stroke="#e5e5e5" stroke-width="1.5" points="678,-196.85 624,-196.85 624,-160.85 678,-160.85 678,-196.85"/>
<text text-anchor="middle" x="651" y="-176.35" font-family="Helvetica,Arial,sans-serif" font-size="10.00">17 | 24</text>
</g>
<!-- root&#45;&gt;intR -->
<g id="edge2" class="edge">
<title>root&#45;&gt;intR</title>
<path fill="none" stroke="black" d="M486.1,-245.98C519.6,-232.55 576.75,-209.63 614.19,-194.61"/>
<polygon fill="black" stroke="black" points="615.75,-197.76 623.73,-190.79 613.14,-191.26 615.75,-197.76"/>
</g>
<!-- l1 -->
<g id="node4" class="node">
<title>l1</title>
<polygon fill="#e5e5e5" stroke="#e5e5e5" stroke-width="1.5" points="161,-117.85 107,-117.85 107,-81.85 161,-81.85 161,-117.85"/>
<text text-anchor="middle" x="134" y="-97.35" font-family="Helvetica,Arial,sans-serif" font-size="10.00">1 | 3 | 4</text>
</g>
<!-- intL&#45;&gt;l1 -->
<g id="edge3" class="edge">
<title>intL&#45;&gt;l1</title>
<path fill="none" stroke="black" d="M280.81,-165.82C251.15,-152.69 203.5,-131.61 170.57,-117.04"/>
<polygon fill="black" stroke="black" points="171.84,-113.77 161.28,-112.93 169.01,-120.17 171.84,-113.77"/>
</g>
<!-- l2 -->
<g id="node5" class="node">
<title>l2</title>
<polygon fill="#e5e5e5" stroke="#e5e5e5" stroke-width="1.5" points="259,-117.85 205,-117.85 205,-81.85 259,-81.85 259,-117.85"/>
<text text-anchor="middle" x="232" y="-97.35" font-family="Helvetica,Arial,sans-serif" font-size="10.00">5 | 6</text>
</g>
<!-- intL&#45;&gt;l2 -->
<g id="edge4" class="edge">
<title>intL&#45;&gt;l2</title>
<path fill="none" stroke="black" d="M291.13,-160.76C280.8,-150.3 267.41,-136.73 255.99,-125.16"/>
<polygon fill="black" stroke="black" points="258.34,-122.55 248.82,-117.89 253.35,-127.47 258.34,-122.55"/>
</g>
<!-- l3 -->
<g id="node6" class="node">
<title>l3</title>
<polygon fill="#e5e5e5" stroke="#e5e5e5" stroke-width="1.5" points="335,-117.85 281,-117.85 281,-81.85 335,-81.85 335,-117.85"/>
<text text-anchor="middle" x="308" y="-97.35" font-family="Helvetica,Arial,sans-serif" font-size="10.00">7</text>
</g>
<!-- intL&#45;&gt;l3 -->
<g id="edge5" class="edge">
<title>intL&#45;&gt;l3</title>
<path fill="none" stroke="black" d="M308,-160.76C308,-151.19 308,-139.03 308,-128.18"/>
<polygon fill="black" stroke="black" points="311.5,-127.89 308,-117.89 304.5,-127.89 311.5,-127.89"/>
</g>
<!-- l4 -->
<g id="node7" class="node">
<title>l4</title>
<polygon fill="#e5e5e5" stroke="#e5e5e5" stroke-width="1.5" points="420.5,-117.85 357.5,-117.85 357.5,-81.85 420.5,-81.85 420.5,-117.85"/>
<text text-anchor="middle" x="389" y="-97.35" font-family="Helvetica,Arial,sans-serif" font-size="10.00">11 | 12 | 13</text>
</g>
<!-- intL&#45;&gt;l4 -->
<g id="edge6" class="edge">
<title>intL&#45;&gt;l4</title>
<path fill="none" stroke="black" d="M325.98,-160.76C337.09,-150.2 351.53,-136.47 363.78,-124.83"/>
<polygon fill="black" stroke="black" points="366.24,-127.32 371.07,-117.89 361.41,-122.25 366.24,-127.32"/>
</g>
<!-- l5 -->
<g id="node8" class="node">
<title>l5</title>
<polygon fill="#e5e5e5" stroke="#e5e5e5" stroke-width="1.5" points="564,-117.85 510,-117.85 510,-81.85 564,-81.85 564,-117.85"/>
<text text-anchor="middle" x="537" y="-97.35" font-family="Helvetica,Arial,sans-serif" font-size="10.00">14 | 16</text>
</g>
<!-- intR&#45;&gt;l5 -->
<g id="edge7" class="edge">
<title>intR&#45;&gt;l5</title>
<path fill="none" stroke="black" d="M625.7,-160.76C609.46,-149.8 588.2,-135.43 570.56,-123.52"/>
<polygon fill="black" stroke="black" points="572.48,-120.59 562.23,-117.89 568.56,-126.39 572.48,-120.59"/>
</g>
<!-- l6 -->
<g id="node9" class="node">
<title>l6</title>
<polygon fill="#e5e5e5" stroke="#e5e5e5" stroke-width="1.5" points="640,-117.85 586,-117.85 586,-81.85 640,-81.85 640,-117.85"/>
<text text-anchor="middle" x="613" y="-97.35" font-family="Helvetica,Arial,sans-serif" font-size="10.00">17</text>
</g>
<!-- intR&#45;&gt;l6 -->
<g id="edge8" class="edge">
<title>intR&#45;&gt;l6</title>
<path fill="none" stroke="black" d="M642.57,-160.76C637.7,-150.89 631.47,-138.27 625.98,-127.16"/>
<polygon fill="black" stroke="black" points="628.97,-125.31 621.41,-117.89 622.7,-128.41 628.97,-125.31"/>
</g>
<!-- l7 -->
<g id="node10" class="node">
<title>l7</title>
<polygon fill="#e5e5e5" stroke="#e5e5e5" stroke-width="1.5" points="716,-117.85 662,-117.85 662,-81.85 716,-81.85 716,-117.85"/>
<text text-anchor="middle" x="689" y="-97.35" font-family="Helvetica,Arial,sans-serif" font-size="10.00">19 | 23</text>
</g>
<!-- intR&#45;&gt;l7 -->
<g id="edge9" class="edge">
<title>intR&#45;&gt;l7</title>
<path fill="none" stroke="black" d="M659.43,-160.76C664.3,-150.89 670.53,-138.27 676.02,-127.16"/>
<polygon fill="black" stroke="black" points="679.3,-128.41 680.59,-117.89 673.03,-125.31 679.3,-128.41"/>
</g>
<!-- l8 -->
<g id="node11" class="node">
<title>l8</title>
<polygon fill="#e5e5e5" stroke="#e5e5e5" stroke-width="1.5" points="800,-117.85 746,-117.85 746,-81.85 800,-81.85 800,-117.85"/>
<text text-anchor="middle" x="773" y="-97.35" font-family="Helvetica,Arial,sans-serif" font-size="10.00">24</text>
</g>
<!-- intR&#45;&gt;l8 -->
<g id="edge10" class="edge">
<title>intR&#45;&gt;l8</title>
<path fill="none" stroke="black" d="M678.08,-160.76C695.53,-149.75 718.42,-135.3 737.34,-123.36"/>
<polygon fill="black" stroke="black" points="739.41,-126.19 746,-117.89 735.68,-120.27 739.41,-126.19"/>
</g>
<!-- l9 -->
<g id="node12" class="node">
<title>l9</title>
<polygon fill="#e5e5e5" stroke="#e5e5e5" stroke-width="1.5" points="880,-117.85 826,-117.85 826,-81.85 880,-81.85 880,-117.85"/>
<text text-anchor="middle" x="853" y="-97.35" font-family="Helvetica,Arial,sans-serif" font-size="10.00">25 | 26</text>
</g>
<!-- intR&#45;&gt;l9 -->
<g id="edge11" class="edge">
<title>intR&#45;&gt;l9</title>
<path fill="none" stroke="black" d="M678.14,-167.67C723.79,-150.56 811,-117.85 811,-117.85 811,-117.85 813.11,-117 816.38,-115.67"/>
<polygon fill="black" stroke="black" points="817.73,-118.9 825.69,-111.91 815.11,-112.41 817.73,-118.9"/>
</g>
<!-- l1&#45;&gt;l2 -->
<g id="edge12" class="edge">
<title>l1&#45;&gt;l2</title>
<path fill="none" stroke="black" stroke-dasharray="1,5" d="M161.27,-99.85C164.5,-99.85 166.67,-99.85 166.67,-99.85 166.67,-99.85 183.18,-99.85 194.66,-99.85"/>
<polygon fill="black" stroke="black" points="194.73,-103.35 204.73,-99.85 194.73,-96.35 194.73,-103.35"/>
</g>
<!-- r1 -->
<g id="node13" class="node">
<title>r1</title>
<ellipse fill="white" stroke="#e5e5e5" stroke-width="1.5" cx="18" cy="-19.43" rx="18" ry="18"/>
<text text-anchor="middle" x="18" y="-16.93" font-family="Helvetica,Arial,sans-serif" font-size="10.00">R1</text>
</g>
<!-- l1&#45;&gt;r1 -->
<g id="edge20" class="edge">
<title>l1&#45;&gt;r1</title>
<path fill="none" stroke="black" d="M108.83,-81.83C88.61,-68.16 60.44,-49.12 40.86,-35.88"/>
<polygon fill="black" stroke="black" points="42.77,-32.94 32.52,-30.24 38.84,-38.74 42.77,-32.94"/>
</g>
<!-- r3 -->
<g id="node14" class="node">
<title>r3</title>
<ellipse fill="white" stroke="#e5e5e5" stroke-width="1.5" cx="76" cy="-19.43" rx="18" ry="18"/>
<text text-anchor="middle" x="76" y="-16.93" font-family="Helvetica,Arial,sans-serif" font-size="10.00">R3</text>
</g>
<!-- l1&#45;&gt;r3 -->
<g id="edge21" class="edge">
<title>l1&#45;&gt;r3</title>
<path fill="none" stroke="black" d="M121.41,-81.83C112.86,-70.27 101.47,-54.86 92.23,-42.37"/>
<polygon fill="black" stroke="black" points="95,-40.23 86.24,-34.27 89.37,-44.4 95,-40.23"/>
</g>
<!-- r4 -->
<g id="node15" class="node">
<title>r4</title>
<ellipse fill="white" stroke="#e5e5e5" stroke-width="1.5" cx="134" cy="-19.43" rx="18" ry="18"/>
<text text-anchor="middle" x="134" y="-16.93" font-family="Helvetica,Arial,sans-serif" font-size="10.00">R4</text>
</g>
<!-- l1&#45;&gt;r4 -->
<g id="edge22" class="edge">
<title>l1&#45;&gt;r4</title>
<path fill="none" stroke="black" d="M134,-81.83C134,-71.93 134,-59.22 134,-47.93"/>
<polygon fill="black" stroke="black" points="137.5,-47.68 134,-37.68 130.5,-47.68 137.5,-47.68"/>
</g>
<!-- l2&#45;&gt;l3 -->
<g id="edge13" class="edge">
<title>l2&#45;&gt;l3</title>
<path fill="none" stroke="black" stroke-dasharray="1,5" d="M259.32,-99.85C261.78,-99.85 266.15,-99.85 270.46,-99.85"/>
<polygon fill="black" stroke="black" points="270.76,-103.35 280.76,-99.85 270.76,-96.35 270.76,-103.35"/>
</g>
<!-- r5 -->
<g id="node16" class="node">
<title>r5</title>
<ellipse fill="white" stroke="#e5e5e5" stroke-width="1.5" cx="192" cy="-19.43" rx="18" ry="18"/>
<text text-anchor="middle" x="192" y="-16.93" font-family="Helvetica,Arial,sans-serif" font-size="10.00">R5</text>
</g>
<!-- l2&#45;&gt;r5 -->
<g id="edge23" class="edge">
<title>l2&#45;&gt;r5</title>
<path fill="none" stroke="black" d="M223.32,-81.83C217.81,-71.03 210.59,-56.87 204.47,-44.87"/>
<polygon fill="black" stroke="black" points="207.51,-43.13 199.85,-35.82 201.27,-46.31 207.51,-43.13"/>
</g>
<!-- r6 -->
<g id="node17" class="node">
<title>r6</title>
<ellipse fill="white" stroke="#e5e5e5" stroke-width="1.5" cx="250" cy="-19.43" rx="18" ry="18"/>
<text text-anchor="middle" x="250" y="-16.93" font-family="Helvetica,Arial,sans-serif" font-size="10.00">R6</text>
</g>
<!-- l2&#45;&gt;r6 -->
<g id="edge24" class="edge">
<title>l2&#45;&gt;r6</title>
<path fill="none" stroke="black" d="M235.91,-81.83C238.23,-71.69 241.24,-58.6 243.88,-47.11"/>
<polygon fill="black" stroke="black" points="247.34,-47.67 246.16,-37.14 240.52,-46.1 247.34,-47.67"/>
</g>
<!-- l3&#45;&gt;l4 -->
<g id="edge14" class="edge">
<title>l3&#45;&gt;l4</title>
<path fill="none" stroke="black" stroke-dasharray="1,5" d="M335.08,-99.85C335.77,-99.85 341.02,-99.85 346.7,-99.85"/>
<polygon fill="black" stroke="black" points="347.08,-103.35 357.08,-99.85 347.08,-96.35 347.08,-103.35"/>
</g>
<!-- r7 -->
<g id="node18" class="node">
<title>r7</title>
<ellipse fill="white" stroke="#e5e5e5" stroke-width="1.5" cx="308" cy="-19.43" rx="18" ry="18"/>
<text text-anchor="middle" x="308" y="-16.93" font-family="Helvetica,Arial,sans-serif" font-size="10.00">R7</text>
</g>
<!-- l3&#45;&gt;r7 -->
<g id="edge25" class="edge">
<title>l3&#45;&gt;r7</title>
<path fill="none" stroke="black" d="M308,-81.83C308,-71.93 308,-59.22 308,-47.93"/>
<polygon fill="black" stroke="black" points="311.5,-47.68 308,-37.68 304.5,-47.68 311.5,-47.68"/>
</g>
<!-- l4&#45;&gt;l5 -->
<g id="edge15" class="edge">
<title>l4&#45;&gt;l5</title>
<path fill="none" stroke="black" stroke-dasharray="1,5" d="M420.52,-99.85C430.19,-99.85 438.33,-99.85 438.33,-99.85 438.33,-99.85 487.67,-99.85 487.67,-99.85 487.67,-99.85 492.71,-99.85 499.56,-99.85"/>
<polygon fill="black" stroke="black" points="499.74,-103.35 509.74,-99.85 499.74,-96.35 499.74,-103.35"/>
</g>
<!-- r12 -->
<g id="node19" class="node">
<title>r12</title>
<ellipse fill="white" stroke="#e5e5e5" stroke-width="1.5" cx="367" cy="-19.43" rx="19.35" ry="19.35"/>
<text text-anchor="middle" x="367" y="-16.93" font-family="Helvetica,Arial,sans-serif" font-size="10.00">R12</text>
</g>
<!-- l4&#45;&gt;r12 -->
<g id="edge26" class="edge">
<title>l4&#45;&gt;r12</title>
<path fill="none" stroke="black" d="M384.23,-81.83C381.46,-71.97 377.91,-59.31 374.75,-48.05"/>
<polygon fill="black" stroke="black" points="378.06,-46.91 371.99,-38.23 371.32,-48.8 378.06,-46.91"/>
</g>
<!-- r13 -->
<g id="node20" class="node">
<title>r13</title>
<ellipse fill="white" stroke="#e5e5e5" stroke-width="1.5" cx="428" cy="-19.43" rx="19.35" ry="19.35"/>
<text text-anchor="middle" x="428" y="-16.93" font-family="Helvetica,Arial,sans-serif" font-size="10.00">R13</text>
</g>
<!-- l4&#45;&gt;r13 -->
<g id="edge27" class="edge">
<title>l4&#45;&gt;r13</title>
<path fill="none" stroke="black" d="M397.46,-81.83C402.61,-71.49 409.28,-58.07 415.08,-46.41"/>
<polygon fill="black" stroke="black" points="418.37,-47.65 419.69,-37.14 412.1,-44.54 418.37,-47.65"/>
</g>
<!-- l5&#45;&gt;l6 -->
<g id="edge16" class="edge">
<title>l5&#45;&gt;l6</title>
<path fill="none" stroke="black" stroke-dasharray="1,5" d="M564.32,-99.85C566.78,-99.85 571.15,-99.85 575.46,-99.85"/>
<polygon fill="black" stroke="black" points="575.76,-103.35 585.76,-99.85 575.76,-96.35 575.76,-103.35"/>
</g>
<!-- r14 -->
<g id="node21" class="node">
<title>r14</title>
<ellipse fill="white" stroke="#e5e5e5" stroke-width="1.5" cx="489" cy="-19.43" rx="19.35" ry="19.35"/>
<text text-anchor="middle" x="489" y="-16.93" font-family="Helvetica,Arial,sans-serif" font-size="10.00">R14</text>
</g>
<!-- l5&#45;&gt;r14 -->
<g id="edge28" class="edge">
<title>l5&#45;&gt;r14</title>
<path fill="none" stroke="black" d="M526.58,-81.83C519.99,-71.06 511.36,-56.96 504.04,-44.99"/>
<polygon fill="black" stroke="black" points="506.95,-43.04 498.74,-36.34 500.98,-46.7 506.95,-43.04"/>
</g>
<!-- r16 -->
<g id="node22" class="node">
<title>r16</title>
<ellipse fill="white" stroke="#e5e5e5" stroke-width="1.5" cx="550" cy="-19.43" rx="19.35" ry="19.35"/>
<text text-anchor="middle" x="550" y="-16.93" font-family="Helvetica,Arial,sans-serif" font-size="10.00">R16</text>
</g>
<!-- l5&#45;&gt;r16 -->
<g id="edge29" class="edge">
<title>l5&#45;&gt;r16</title>
<path fill="none" stroke="black" d="M539.82,-81.83C541.42,-72.21 543.45,-59.92 545.29,-48.87"/>
<polygon fill="black" stroke="black" points="548.78,-49.22 546.96,-38.78 541.87,-48.07 548.78,-49.22"/>
</g>
<!-- l6&#45;&gt;l7 -->
<g id="edge17" class="edge">
<title>l6&#45;&gt;l7</title>
<path fill="none" stroke="black" stroke-dasharray="1,5" d="M640.32,-99.85C642.78,-99.85 647.15,-99.85 651.46,-99.85"/>
<polygon fill="black" stroke="black" points="651.76,-103.35 661.76,-99.85 651.76,-96.35 651.76,-103.35"/>
</g>
<!-- r17 -->
<g id="node23" class="node">
<title>r17</title>
<ellipse fill="white" stroke="#e5e5e5" stroke-width="1.5" cx="611" cy="-19.43" rx="19.35" ry="19.35"/>
<text text-anchor="middle" x="611" y="-16.93" font-family="Helvetica,Arial,sans-serif" font-size="10.00">R17</text>
</g>
<!-- l6&#45;&gt;r17 -->
<g id="edge30" class="edge">
<title>l6&#45;&gt;r17</title>
<path fill="none" stroke="black" d="M612.57,-81.83C612.32,-72.28 612.01,-60.09 611.73,-49.1"/>
<polygon fill="black" stroke="black" points="615.23,-48.96 611.48,-39.06 608.23,-49.14 615.23,-48.96"/>
</g>
<!-- l7&#45;&gt;l8 -->
<g id="edge18" class="edge">
<title>l7&#45;&gt;l8</title>
<path fill="none" stroke="black" stroke-dasharray="1,5" d="M716.31,-99.85C716.75,-99.85 717,-99.85 717,-99.85 717,-99.85 727.4,-99.85 735.68,-99.85"/>
<polygon fill="black" stroke="black" points="735.69,-103.35 745.69,-99.85 735.69,-96.35 735.69,-103.35"/>
</g>
<!-- r19 -->
<g id="node24" class="node">
<title>r19</title>
<ellipse fill="white" stroke="#e5e5e5" stroke-width="1.5" cx="672" cy="-19.43" rx="19.35" ry="19.35"/>
<text text-anchor="middle" x="672" y="-16.93" font-family="Helvetica,Arial,sans-serif" font-size="10.00">R19</text>
</g>
<!-- l7&#45;&gt;r19 -->
<g id="edge31" class="edge">
<title>l7&#45;&gt;r19</title>
<path fill="none" stroke="black" d="M685.31,-81.83C683.19,-72.04 680.47,-59.49 678.04,-48.29"/>
<polygon fill="black" stroke="black" points="681.46,-47.53 675.92,-38.5 674.62,-49.02 681.46,-47.53"/>
</g>
<!-- r23 -->
<g id="node25" class="node">
<title>r23</title>
<ellipse fill="white" stroke="#e5e5e5" stroke-width="1.5" cx="733" cy="-19.43" rx="19.35" ry="19.35"/>
<text text-anchor="middle" x="733" y="-16.93" font-family="Helvetica,Arial,sans-serif" font-size="10.00">R23</text>
</g>
<!-- l7&#45;&gt;r23 -->
<g id="edge32" class="edge">
<title>l7&#45;&gt;r23</title>
<path fill="none" stroke="black" d="M698.55,-81.83C704.49,-71.24 712.24,-57.43 718.89,-45.58"/>
<polygon fill="black" stroke="black" points="722.08,-47.04 723.92,-36.61 715.98,-43.61 722.08,-47.04"/>
</g>
<!-- l8&#45;&gt;l9 -->
<g id="edge19" class="edge">
<title>l8&#45;&gt;l9</title>
<path fill="none" stroke="black" stroke-dasharray="1,5" d="M800.33,-99.85C802.48,-99.85 809.51,-99.85 815.73,-99.85"/>
<polygon fill="black" stroke="black" points="815.79,-103.35 825.79,-99.85 815.79,-96.35 815.79,-103.35"/>
</g>
<!-- r24 -->
<g id="node26" class="node">
<title>r24</title>
<ellipse fill="white" stroke="#e5e5e5" stroke-width="1.5" cx="794" cy="-19.43" rx="19.35" ry="19.35"/>
<text text-anchor="middle" x="794" y="-16.93" font-family="Helvetica,Arial,sans-serif" font-size="10.00">R24</text>
</g>
<!-- l8&#45;&gt;r24 -->
<g id="edge33" class="edge">
<title>l8&#45;&gt;r24</title>
<path fill="none" stroke="black" d="M777.56,-81.83C780.18,-72.04 783.54,-59.49 786.54,-48.29"/>
<polygon fill="black" stroke="black" points="789.95,-49.07 789.16,-38.5 783.19,-47.26 789.95,-49.07"/>
</g>
<!-- r25 -->
<g id="node27" class="node">
<title>r25</title>
<ellipse fill="white" stroke="#e5e5e5" stroke-width="1.5" cx="855" cy="-19.43" rx="19.35" ry="19.35"/>
<text text-anchor="middle" x="855" y="-16.93" font-family="Helvetica,Arial,sans-serif" font-size="10.00">R25</text>
</g>
<!-- l9&#45;&gt;r25 -->
<g id="edge34" class="edge">
<title>l9&#45;&gt;r25</title>
<path fill="none" stroke="black" d="M853.43,-81.83C853.68,-72.28 853.99,-60.09 854.27,-49.1"/>
<polygon fill="black" stroke="black" points="857.77,-49.14 854.52,-39.06 850.77,-48.96 857.77,-49.14"/>
</g>
<!-- r26 -->
<g id="node28" class="node">
<title>r26</title>
<ellipse fill="white" stroke="#e5e5e5" stroke-width="1.5" cx="916" cy="-19.43" rx="19.35" ry="19.35"/>
<text text-anchor="middle" x="916" y="-16.93" font-family="Helvetica,Arial,sans-serif" font-size="10.00">R26</text>
</g>
<!-- l9&#45;&gt;r26 -->
<g id="edge35" class="edge">
<title>l9&#45;&gt;r26</title>
<path fill="none" stroke="black" d="M866.67,-81.83C875.79,-70.49 887.87,-55.44 897.8,-43.09"/>
<polygon fill="black" stroke="black" points="900.73,-45.03 904.26,-35.04 895.27,-40.64 900.73,-45.03"/>
</g>
</g>
</svg>
