<?xml version="1.0" encoding="UTF-8" standalone="no"?>
<!DOCTYPE svg PUBLIC "-//W3C//DTD SVG 1.1//EN"
 "http://www.w3.org/Graphics/SVG/1.1/DTD/svg11.dtd">
<!-- Generated by graphviz version 2.43.0 (0)
 -->
<!-- Title: BPlusTreeLogo Pages: 1 -->
<svg width="374pt" height="195pt"
 viewBox="0.00 0.00 374.00 195.00" xmlns="http://www.w3.org/2000/svg" xmlns:xlink="http://www.w3.org/1999/xlink">
<g id="graph0" class="graph" transform="scale(1 1) rotate(0) translate(4 191)">
<title>BPlusTreeLogo</title>
<polygon fill="white" stroke="transparent" points="-4,4 -4,-191 370,-191 370,4 -4,4"/>
<!-- root -->
<g id="node1" class="node">
<title>root</title>
<polygon fill="#d6eaf8" stroke="#5499c7" stroke-width="1.8" points="168,-187 118,-187 118,-158 168,-158 168,-187"/>
<text text-anchor="middle" x="143" y="-170" font-family="Helvetica,Arial,sans-serif" font-size="10.00">• | •</text>
</g>
<!-- intL -->
<g id="node2" class="node">
<title>intL</title>
<polygon fill="#e8daef" stroke="#8e44ad" stroke-width="1.8" points="129,-108 79,-108 79,-79 129,-79 129,-108"/>
<text text-anchor="middle" x="104" y="-91" font-family="Helvetica,Arial,sans-serif" font-size="10.00">• | •</text>
</g>
<!-- root&#45;&gt;intL -->
<g id="edge1" class="edge">
<title>root&#45;&gt;intL</title>
<path fill="none" stroke="black" stroke-width="1.2" d="M136.03,-157.73C129.93,-145.69 120.99,-128.04 114.11,-114.45"/>
<polygon fill="black" stroke="black" stroke-width="1.2" points="116.26,-113.28 110.91,-108.15 111.89,-115.5 116.26,-113.28"/>
</g>
<!-- intR -->
<g id="node3" class="node">
<title>intR</title>
<polygon fill="#e8daef" stroke="#8e44ad" stroke-width="1.8" points="247,-108 197,-108 197,-79 247,-79 247,-108"/>
<text text-anchor="middle" x="222" y="-91" font-family="Helvetica,Arial,sans-serif" font-size="10.00">• | •</text>
</g>
<!-- root&#45;&gt;intR -->
<g id="edge2" class="edge">
<title>root&#45;&gt;intR</title>
<path fill="none" stroke="black" stroke-width="1.2" d="M157.12,-157.73C169.82,-145.36 188.58,-127.08 202.66,-113.35"/>
<polygon fill="black" stroke="black" stroke-width="1.2" points="204.7,-114.79 208,-108.15 201.28,-111.28 204.7,-114.79"/>
</g>
<!-- l1 -->
<g id="node4" class="node">
<title>l1</title>
<polygon fill="#d5f5e3" stroke="#28b463" stroke-width="1.8" points="50,-29 0,-29 0,0 50,0 50,-29"/>
<text text-anchor="middle" x="25" y="-12" font-family="Helvetica,Arial,sans-serif" font-size="10.00">• •</text>
</g>
<!-- intL&#45;&gt;l1 -->
<g id="edge3" class="edge">
<title>intL&#45;&gt;l1</title>
<path fill="none" stroke="black" stroke-width="1.2" d="M89.88,-78.73C77.18,-66.36 58.42,-48.08 44.34,-34.35"/>
<polygon fill="black" stroke="black" stroke-width="1.2" points="45.72,-32.28 39,-29.15 42.3,-35.79 45.72,-32.28"/>
</g>
<!-- l2 -->
<g id="node5" class="node">
<title>l2</title>
<polygon fill="#d5f5e3" stroke="#28b463" stroke-width="1.8" points="129,-29 79,-29 79,0 129,0 129,-29"/>
<text text-anchor="middle" x="104" y="-12" font-family="Helvetica,Arial,sans-serif" font-size="10.00">• •</text>
</g>
<!-- intL&#45;&gt;l2 -->
<g id="edge4" class="edge">
<title>intL&#45;&gt;l2</title>
<path fill="none" stroke="black" stroke-width="1.2" d="M104,-78.73C104,-66.91 104,-49.68 104,-36.2"/>
<polygon fill="black" stroke="black" stroke-width="1.2" points="106.45,-36.15 104,-29.15 101.55,-36.15 106.45,-36.15"/>
</g>
<!-- l3 -->
<g id="node6" class="node">
<title>l3</title>
<polygon fill="#d5f5e3" stroke="#28b463" stroke-width="1.8" points="208,-29 158,-29 158,0 208,0 208,-29"/>
<text text-anchor="middle" x="183" y="-12" font-family="Helvetica,Arial,sans-serif" font-size="10.00">• •</text>
</g>
<!-- intR&#45;&gt;l3 -->
<g id="edge5" class="edge">
<title>intR&#45;&gt;l3</title>
<path fill="none" stroke="black" stroke-width="1.2" d="M215.03,-78.73C208.93,-66.69 199.99,-49.04 193.11,-35.45"/>
<polygon fill="black" stroke="black" stroke-width="1.2" points="195.26,-34.28 189.91,-29.15 190.89,-36.5 195.26,-34.28"/>
</g>
<!-- l4 -->
<g id="node7" class="node">
<title>l4</title>
<polygon fill="#d5f5e3" stroke="#28b463" stroke-width="1.8" points="287,-29 237,-29 237,0 287,0 287,-29"/>
<text text-anchor="middle" x="262" y="-12" font-family="Helvetica,Arial,sans-serif" font-size="10.00">• •</text>
</g>
<!-- intR&#45;&gt;l4 -->
<g id="edge6" class="edge">
<title>intR&#45;&gt;l4</title>
<path fill="none" stroke="black" stroke-width="1.2" d="M229.15,-78.73C235.41,-66.69 244.57,-49.04 251.64,-35.45"/>
<polygon fill="black" stroke="black" stroke-width="1.2" points="253.86,-36.49 254.91,-29.15 249.51,-34.23 253.86,-36.49"/>
</g>
<!-- l5 -->
<g id="node8" class="node">
<title>l5</title>
<polygon fill="#d5f5e3" stroke="#28b463" stroke-width="1.8" points="366,-29 316,-29 316,0 366,0 366,-29"/>
<text text-anchor="middle" x="341" y="-12" font-family="Helvetica,Arial,sans-serif" font-size="10.00">• •</text>
</g>
<!-- intR&#45;&gt;l5 -->
<g id="edge7" class="edge">
<title>intR&#45;&gt;l5</title>
<path fill="none" stroke="black" stroke-width="1.2" d="M243,-78.91C262.68,-66.18 292.2,-47.08 313.69,-33.17"/>
<polygon fill="black" stroke="black" stroke-width="1.2" points="315.26,-35.07 319.81,-29.21 312.6,-30.96 315.26,-35.07"/>
</g>
<!-- l1&#45;&gt;l2 -->
<g id="edge8" class="edge">
<title>l1&#45;&gt;l2</title>
<path fill="none" stroke="#666666" stroke-width="1.2" stroke-dasharray="1,5" d="M50.2,-14.5C50.92,-14.5 51.33,-14.5 51.33,-14.5 51.33,-14.5 63.5,-14.5 71.65,-14.5"/>
<polygon fill="#666666" stroke="#666666" stroke-width="1.2" points="71.8,-16.95 78.8,-14.5 71.8,-12.05 71.8,-16.95"/>
</g>
<!-- l2&#45;&gt;l3 -->
<g id="edge9" class="edge">
<title>l2&#45;&gt;l3</title>
<path fill="none" stroke="#666666" stroke-width="1.2" stroke-dasharray="1,5" d="M129.2,-14.5C129.92,-14.5 130.33,-14.5 130.33,-14.5 130.33,-14.5 142.5,-14.5 150.65,-14.5"/>
<polygon fill="#666666" stroke="#666666" stroke-width="1.2" points="150.8,-16.95 157.8,-14.5 150.8,-12.05 150.8,-16.95"/>
</g>
<!-- l3&#45;&gt;l4 -->
<g id="edge10" class="edge">
<title>l3&#45;&gt;l4</title>
<path fill="none" stroke="#666666" stroke-width="1.2" stroke-dasharray="1,5" d="M208.2,-14.5C208.92,-14.5 209.33,-14.5 209.33,-14.5 209.33,-14.5 221.5,-14.5 229.65,-14.5"/>
<polygon fill="#666666" stroke="#666666" stroke-width="1.2" points="229.8,-16.95 236.8,-14.5 229.8,-12.05 229.8,-16.95"/>
</g>
<!-- l4&#45;&gt;l5 -->
<g id="edge11" class="edge">
<title>l4&#45;&gt;l5</title>
<path fill="none" stroke="#666666" stroke-width="1.2" stroke-dasharray="1,5" d="M287.2,-14.5C287.92,-14.5 288.33,-14.5 288.33,-14.5 288.33,-14.5 300.5,-14.5 308.65,-14.5"/>
<polygon fill="#666666" stroke="#666666" stroke-width="1.2" points="308.8,-16.95 315.8,-14.5 308.8,-12.05 308.8,-16.95"/>
</g>
</g>
</svg>
