<?xml version="1.0" encoding="UTF-8" standalone="no"?>
<!DOCTYPE svg PUBLIC "-//W3C//DTD SVG 1.1//EN"
 "http://www.w3.org/Graphics/SVG/1.1/DTD/svg11.dtd">
<!-- Generated by graphviz version 2.43.0 (0)
 -->
<!-- Title: BPlusTreeLogo Pages: 1 -->
<svg width="690pt" height="195pt"
 viewBox="0.00 0.00 690.00 195.00" xmlns="http://www.w3.org/2000/svg" xmlns:xlink="http://www.w3.org/1999/xlink">
<g id="graph0" class="graph" transform="scale(1 1) rotate(0) translate(4 191)">
<title>BPlusTreeLogo</title>
<polygon fill="white" stroke="transparent" points="-4,4 -4,-191 686,-191 686,4 -4,4"/>
<!-- root -->
<g id="node1" class="node">
<title>root</title>
<polygon fill="#d6eaf8" stroke="#5499c7" stroke-width="1.8" points="366,-187 316,-187 316,-158 366,-158 366,-187"/>
<text text-anchor="middle" x="341" y="-170" font-family="Helvetica,Arial,sans-serif" font-size="10.00">• | •</text>
</g>
<!-- intL -->
<g id="node2" class="node">
<title>intL</title>
<polygon fill="#e8daef" stroke="#8e44ad" stroke-width="1.8" points="169,-108 119,-108 119,-79 169,-79 169,-108"/>
<text text-anchor="middle" x="144" y="-91" font-family="Helvetica,Arial,sans-serif" font-size="10.00">• | • | •</text>
</g>
<!-- root&#45;&gt;intL -->
<g id="edge1" class="edge">
<title>root&#45;&gt;intL</title>
<path fill="none" stroke="black" stroke-width="1.2" d="M315.65,-161.59C280.04,-147.67 215.21,-122.33 176.22,-107.09"/>
<polygon fill="black" stroke="black" stroke-width="1.2" points="176.67,-104.64 169.25,-104.37 174.88,-109.2 176.67,-104.64"/>
</g>
<!-- intM -->
<g id="node3" class="node">
<title>intM</title>
<polygon fill="#e8daef" stroke="#8e44ad" stroke-width="1.8" points="366,-108 316,-108 316,-79 366,-79 366,-108"/>
<text text-anchor="middle" x="341" y="-91" font-family="Helvetica,Arial,sans-serif" font-size="10.00">• | • | •</text>
</g>
<!-- root&#45;&gt;intM -->
<g id="edge2" class="edge">
<title>root&#45;&gt;intM</title>
<path fill="none" stroke="black" stroke-width="1.2" d="M341,-157.73C341,-145.91 341,-128.68 341,-115.2"/>
<polygon fill="black" stroke="black" stroke-width="1.2" points="343.45,-115.15 341,-108.15 338.55,-115.15 343.45,-115.15"/>
</g>
<!-- intR -->
<g id="node4" class="node">
<title>intR</title>
<polygon fill="#e8daef" stroke="#8e44ad" stroke-width="1.8" points="563,-108 513,-108 513,-79 563,-79 563,-108"/>
<text text-anchor="middle" x="538" y="-91" font-family="Helvetica,Arial,sans-serif" font-size="10.00">• | • | •</text>
</g>
<!-- root&#45;&gt;intR -->
<g id="edge3" class="edge">
<title>root&#45;&gt;intR</title>
<path fill="none" stroke="black" stroke-width="1.2" d="M366.35,-161.59C401.96,-147.67 466.79,-122.33 505.78,-107.09"/>
<polygon fill="black" stroke="black" stroke-width="1.2" points="507.12,-109.2 512.75,-104.37 505.33,-104.64 507.12,-109.2"/>
</g>
<!-- l1 -->
<g id="node5" class="node">
<title>l1</title>
<polygon fill="#d5f5e3" stroke="#28b463" stroke-width="1.8" points="50,-29 0,-29 0,0 50,0 50,-29"/>
<text text-anchor="middle" x="25" y="-12" font-family="Helvetica,Arial,sans-serif" font-size="10.00">• •</text>
</g>
<!-- intL&#45;&gt;l1 -->
<g id="edge4" class="edge">
<title>intL&#45;&gt;l1</title>
<path fill="none" stroke="black" stroke-width="1.2" d="M123,-78.91C103.32,-66.18 73.8,-47.08 52.31,-33.17"/>
<polygon fill="black" stroke="black" stroke-width="1.2" points="53.4,-30.96 46.19,-29.21 50.74,-35.07 53.4,-30.96"/>
</g>
<!-- l2 -->
<g id="node6" class="node">
<title>l2</title>
<polygon fill="#d5f5e3" stroke="#28b463" stroke-width="1.8" points="129,-29 79,-29 79,0 129,0 129,-29"/>
<text text-anchor="middle" x="104" y="-12" font-family="Helvetica,Arial,sans-serif" font-size="10.00">• •</text>
</g>
<!-- intL&#45;&gt;l2 -->
<g id="edge5" class="edge">
<title>intL&#45;&gt;l2</title>
<path fill="none" stroke="black" stroke-width="1.2" d="M136.85,-78.73C130.59,-66.69 121.43,-49.04 114.36,-35.45"/>
<polygon fill="black" stroke="black" stroke-width="1.2" points="116.49,-34.23 111.09,-29.15 112.14,-36.49 116.49,-34.23"/>
</g>
<!-- l3 -->
<g id="node7" class="node">
<title>l3</title>
<polygon fill="#d5f5e3" stroke="#28b463" stroke-width="1.8" points="208,-29 158,-29 158,0 208,0 208,-29"/>
<text text-anchor="middle" x="183" y="-12" font-family="Helvetica,Arial,sans-serif" font-size="10.00">• •</text>
</g>
<!-- intL&#45;&gt;l3 -->
<g id="edge6" class="edge">
<title>intL&#45;&gt;l3</title>
<path fill="none" stroke="black" stroke-width="1.2" d="M150.97,-78.73C157.07,-66.69 166.01,-49.04 172.89,-35.45"/>
<polygon fill="black" stroke="black" stroke-width="1.2" points="175.11,-36.5 176.09,-29.15 170.74,-34.28 175.11,-36.5"/>
</g>
<!-- l4 -->
<g id="node8" class="node">
<title>l4</title>
<polygon fill="#d5f5e3" stroke="#28b463" stroke-width="1.8" points="287,-29 237,-29 237,0 287,0 287,-29"/>
<text text-anchor="middle" x="262" y="-12" font-family="Helvetica,Arial,sans-serif" font-size="10.00">• •</text>
</g>
<!-- intM&#45;&gt;l4 -->
<g id="edge7" class="edge">
<title>intM&#45;&gt;l4</title>
<path fill="none" stroke="black" stroke-width="1.2" d="M326.88,-78.73C314.18,-66.36 295.42,-48.08 281.34,-34.35"/>
<polygon fill="black" stroke="black" stroke-width="1.2" points="282.72,-32.28 276,-29.15 279.3,-35.79 282.72,-32.28"/>
</g>
<!-- l5 -->
<g id="node9" class="node">
<title>l5</title>
<polygon fill="#d5f5e3" stroke="#28b463" stroke-width="1.8" points="366,-29 316,-29 316,0 366,0 366,-29"/>
<text text-anchor="middle" x="341" y="-12" font-family="Helvetica,Arial,sans-serif" font-size="10.00">• •</text>
</g>
<!-- intM&#45;&gt;l5 -->
<g id="edge8" class="edge">
<title>intM&#45;&gt;l5</title>
<path fill="none" stroke="black" stroke-width="1.2" d="M341,-78.73C341,-66.91 341,-49.68 341,-36.2"/>
<polygon fill="black" stroke="black" stroke-width="1.2" points="343.45,-36.15 341,-29.15 338.55,-36.15 343.45,-36.15"/>
</g>
<!-- l6 -->
<g id="node10" class="node">
<title>l6</title>
<polygon fill="#d5f5e3" stroke="#28b463" stroke-width="1.8" points="445,-29 395,-29 395,0 445,0 445,-29"/>
<text text-anchor="middle" x="420" y="-12" font-family="Helvetica,Arial,sans-serif" font-size="10.00">• •</text>
</g>
<!-- intM&#45;&gt;l6 -->
<g id="edge9" class="edge">
<title>intM&#45;&gt;l6</title>
<path fill="none" stroke="black" stroke-width="1.2" d="M355.12,-78.73C367.82,-66.36 386.58,-48.08 400.66,-34.35"/>
<polygon fill="black" stroke="black" stroke-width="1.2" points="402.7,-35.79 406,-29.15 399.28,-32.28 402.7,-35.79"/>
</g>
<!-- l7 -->
<g id="node11" class="node">
<title>l7</title>
<polygon fill="#d5f5e3" stroke="#28b463" stroke-width="1.8" points="524,-29 474,-29 474,0 524,0 524,-29"/>
<text text-anchor="middle" x="499" y="-12" font-family="Helvetica,Arial,sans-serif" font-size="10.00">• •</text>
</g>
<!-- intR&#45;&gt;l7 -->
<g id="edge10" class="edge">
<title>intR&#45;&gt;l7</title>
<path fill="none" stroke="black" stroke-width="1.2" d="M531.03,-78.73C524.93,-66.69 515.99,-49.04 509.11,-35.45"/>
<polygon fill="black" stroke="black" stroke-width="1.2" points="511.26,-34.28 505.91,-29.15 506.89,-36.5 511.26,-34.28"/>
</g>
<!-- l8 -->
<g id="node12" class="node">
<title>l8</title>
<polygon fill="#d5f5e3" stroke="#28b463" stroke-width="1.8" points="603,-29 553,-29 553,0 603,0 603,-29"/>
<text text-anchor="middle" x="578" y="-12" font-family="Helvetica,Arial,sans-serif" font-size="10.00">• •</text>
</g>
<!-- intR&#45;&gt;l8 -->
<g id="edge11" class="edge">
<title>intR&#45;&gt;l8</title>
<path fill="none" stroke="black" stroke-width="1.2" d="M545.15,-78.73C551.41,-66.69 560.57,-49.04 567.64,-35.45"/>
<polygon fill="black" stroke="black" stroke-width="1.2" points="569.86,-36.49 570.91,-29.15 565.51,-34.23 569.86,-36.49"/>
</g>
<!-- l9 -->
<g id="node13" class="node">
<title>l9</title>
<polygon fill="#d5f5e3" stroke="#28b463" stroke-width="1.8" points="682,-29 632,-29 632,0 682,0 682,-29"/>
<text text-anchor="middle" x="657" y="-12" font-family="Helvetica,Arial,sans-serif" font-size="10.00">• •</text>
</g>
<!-- intR&#45;&gt;l9 -->
<g id="edge12" class="edge">
<title>intR&#45;&gt;l9</title>
<path fill="none" stroke="black" stroke-width="1.2" d="M559,-78.91C578.68,-66.18 608.2,-47.08 629.69,-33.17"/>
<polygon fill="black" stroke="black" stroke-width="1.2" points="631.26,-35.07 635.81,-29.21 628.6,-30.96 631.26,-35.07"/>
</g>
<!-- l1&#45;&gt;l2 -->
<g id="edge13" class="edge">
<title>l1&#45;&gt;l2</title>
<path fill="none" stroke="#666666" stroke-width="1.2" stroke-dasharray="1,5" d="M50.2,-14.5C50.92,-14.5 51.33,-14.5 51.33,-14.5 51.33,-14.5 63.5,-14.5 71.65,-14.5"/>
<polygon fill="#666666" stroke="#666666" stroke-width="1.2" points="71.8,-16.95 78.8,-14.5 71.8,-12.05 71.8,-16.95"/>
</g>
<!-- l2&#45;&gt;l3 -->
<g id="edge14" class="edge">
<title>l2&#45;&gt;l3</title>
<path fill="none" stroke="#666666" stroke-width="1.2" stroke-dasharray="1,5" d="M129.2,-14.5C129.92,-14.5 130.33,-14.5 130.33,-14.5 130.33,-14.5 142.5,-14.5 150.65,-14.5"/>
<polygon fill="#666666" stroke="#666666" stroke-width="1.2" points="150.8,-16.95 157.8,-14.5 150.8,-12.05 150.8,-16.95"/>
</g>
<!-- l3&#45;&gt;l4 -->
<g id="edge15" class="edge">
<title>l3&#45;&gt;l4</title>
<path fill="none" stroke="#666666" stroke-width="1.2" stroke-dasharray="1,5" d="M208.2,-14.5C208.92,-14.5 209.33,-14.5 209.33,-14.5 209.33,-14.5 221.5,-14.5 229.65,-14.5"/>
<polygon fill="#666666" stroke="#666666" stroke-width="1.2" points="229.8,-16.95 236.8,-14.5 229.8,-12.05 229.8,-16.95"/>
</g>
<!-- l4&#45;&gt;l5 -->
<g id="edge16" class="edge">
<title>l4&#45;&gt;l5</title>
<path fill="none" stroke="#666666" stroke-width="1.2" stroke-dasharray="1,5" d="M287.2,-14.5C287.92,-14.5 288.33,-14.5 288.33,-14.5 288.33,-14.5 300.5,-14.5 308.65,-14.5"/>
<polygon fill="#666666" stroke="#666666" stroke-width="1.2" points="308.8,-16.95 315.8,-14.5 308.8,-12.05 308.8,-16.95"/>
</g>
<!-- l5&#45;&gt;l6 -->
<g id="edge17" class="edge">
<title>l5&#45;&gt;l6</title>
<path fill="none" stroke="#666666" stroke-width="1.2" stroke-dasharray="1,5" d="M366.2,-14.5C366.92,-14.5 367.33,-14.5 367.33,-14.5 367.33,-14.5 379.5,-14.5 387.65,-14.5"/>
<polygon fill="#666666" stroke="#666666" stroke-width="1.2" points="387.8,-16.95 394.8,-14.5 387.8,-12.05 387.8,-16.95"/>
</g>
<!-- l6&#45;&gt;l7 -->
<g id="edge18" class="edge">
<title>l6&#45;&gt;l7</title>
<path fill="none" stroke="#666666" stroke-width="1.2" stroke-dasharray="1,5" d="M445.2,-14.5C445.92,-14.5 446.33,-14.5 446.33,-14.5 446.33,-14.5 458.5,-14.5 466.65,-14.5"/>
<polygon fill="#666666" stroke="#666666" stroke-width="1.2" points="466.8,-16.95 473.8,-14.5 466.8,-12.05 466.8,-16.95"/>
</g>
<!-- l7&#45;&gt;l8 -->
<g id="edge19" class="edge">
<title>l7&#45;&gt;l8</title>
<path fill="none" stroke="#666666" stroke-width="1.2" stroke-dasharray="1,5" d="M524.2,-14.5C524.92,-14.5 525.33,-14.5 525.33,-14.5 525.33,-14.5 537.5,-14.5 545.65,-14.5"/>
<polygon fill="#666666" stroke="#666666" stroke-width="1.2" points="545.8,-16.95 552.8,-14.5 545.8,-12.05 545.8,-16.95"/>
</g>
<!-- l8&#45;&gt;l9 -->
<g id="edge20" class="edge">
<title>l8&#45;&gt;l9</title>
<path fill="none" stroke="#666666" stroke-width="1.2" stroke-dasharray="1,5" d="M603.2,-14.5C603.92,-14.5 604.33,-14.5 604.33,-14.5 604.33,-14.5 616.5,-14.5 624.65,-14.5"/>
<polygon fill="#666666" stroke="#666666" stroke-width="1.2" points="624.8,-16.95 631.8,-14.5 624.8,-12.05 624.8,-16.95"/>
</g>
</g>
</svg>
